<svg version="1.1" id="Layer_1" xmlns="http://www.w3.org/2000/svg" xmlns:xlink="http://www.w3.org/1999/xlink" x="0px" y="0px"
	 width="100%" viewBox="0 0 500 500" enable-background="new 0 0 500 500" xml:space="preserve">
<path fill="#000000" opacity="1.000000" stroke="none" 
	d="
M284.000000,501.000000 
	C189.333359,501.000000 95.166710,501.000000 1.000051,501.000000 
	C1.000034,334.333405 1.000034,167.666794 1.000017,1.000140 
	C167.666565,1.000093 334.333130,1.000093 500.999756,1.000047 
	C500.999847,167.666519 500.999847,334.333038 500.999939,500.999786 
	C428.833344,501.000000 356.666656,501.000000 284.000000,501.000000 
M91.982719,166.941483 
	C91.982719,166.941483 91.903374,166.938644 91.246002,167.247070 
	C91.472466,169.866425 91.698929,172.485794 92.000084,175.573929 
	C92.000084,175.573929 92.162094,176.020126 92.020233,176.794403 
	C92.654686,178.897049 93.289146,180.999680 93.994095,183.559219 
	C93.994095,183.559219 94.153732,183.993073 94.014732,184.736038 
	C94.087898,185.737366 94.161057,186.738678 94.031639,188.595062 
	C93.082497,199.444794 92.133347,210.294525 91.141716,221.109100 
	C91.141716,221.109100 91.129654,221.162903 90.599747,221.142929 
	C90.435669,221.427139 90.271599,221.711349 90.010521,222.746841 
	C89.396004,224.831390 88.781487,226.915955 88.026642,229.792877 
	C88.079353,230.861481 88.132065,231.930069 88.371475,233.804749 
	C88.581650,235.403778 88.758659,237.007996 89.007874,238.600922 
	C89.974350,244.778427 90.963791,250.952347 92.007378,257.567596 
	C92.007378,257.567596 92.139946,257.991760 91.995705,258.801331 
	C92.611382,260.916718 93.227051,263.032104 93.919441,265.902924 
	C96.170418,271.911835 98.389977,277.932709 100.680550,283.926514 
	C103.382622,290.997040 106.146141,298.044067 109.015434,305.555939 
	C109.015434,305.555939 109.135559,306.014008 109.054268,306.545288 
	C109.337555,306.745148 109.620842,306.945007 109.995369,307.580139 
	C109.995369,307.580139 110.114372,308.008636 109.956703,308.714111 
	C110.262680,309.527008 110.568657,310.339905 110.982834,311.583344 
	C110.982834,311.583344 111.102737,312.010773 110.953415,312.654907 
	C111.268890,313.156830 111.584373,313.658752 112.008904,314.932465 
	C112.894463,317.680634 113.275688,320.742188 114.754395,323.121735 
	C120.614189,332.551453 126.817329,341.767761 133.004730,351.748444 
	C134.386856,353.464722 135.768982,355.180969 137.298859,357.576477 
	C144.493378,361.134094 151.687912,364.691711 159.316315,368.762787 
	C164.884354,372.454407 170.452393,376.146027 176.608032,380.221436 
	C206.734467,399.436798 239.910828,407.926025 275.386749,407.910156 
	C282.950256,407.906799 290.530396,406.862976 298.073059,406.028839 
	C315.932312,404.053833 332.872742,398.803436 349.223022,391.448303 
	C365.000793,384.350647 379.578613,375.255524 392.463257,363.816376 
	C400.612213,356.581635 407.616425,348.057526 415.101166,340.045135 
	C415.101166,340.045135 415.030731,340.068634 415.546661,339.906830 
	C415.744202,339.614685 415.941742,339.322540 416.698303,338.670502 
	C420.143219,334.101807 423.588165,329.533112 427.556335,324.909332 
	C427.765228,324.635162 427.974121,324.361023 428.779083,324.052917 
	C429.176849,323.703949 429.574615,323.354950 429.996643,322.987976 
	C429.996643,322.987976 429.995087,322.957794 430.760468,322.958740 
	C435.995300,322.079590 439.704559,319.650970 441.220856,314.109985 
	C441.973053,311.361298 443.405273,308.483124 445.348663,306.443817 
	C449.034973,302.575470 452.714783,299.105286 452.494751,293.065796 
	C452.325043,288.407227 452.953583,283.719543 453.147888,278.501923 
	C453.079742,278.332184 453.011566,278.162476 453.292603,277.226379 
	C453.448730,274.183655 453.604858,271.140930 454.004395,267.324677 
	C453.942444,266.523956 453.880463,265.723236 453.847626,264.019745 
	C453.882111,260.724823 453.916626,257.429932 454.047272,253.348923 
	C454.313141,251.813065 454.579041,250.277191 455.336029,248.091141 
	C455.483795,242.451767 455.631561,236.812393 455.915833,230.268860 
	C455.893402,227.840240 455.871002,225.411636 455.951233,222.056747 
	C454.640564,209.984360 454.136627,197.754013 451.811584,185.880249 
	C449.011749,171.581436 444.416016,157.676392 436.974274,144.180084 
	C426.847931,122.503769 412.020508,104.346405 394.642883,88.182465 
	C390.870575,84.673645 386.308624,82.013779 381.772766,78.363647 
	C366.465668,65.981041 349.075562,57.181507 330.496246,51.391773 
	C310.527832,45.169170 289.997375,41.892048 268.730865,42.697849 
	C254.771591,43.226776 241.130020,44.542343 227.686661,48.041557 
	C208.181442,53.118626 189.598587,60.366474 172.385361,72.312218 
	C170.537094,73.585190 168.688828,74.858162 166.424789,76.170898 
	C166.138535,76.333107 166.042587,76.571724 165.488754,77.153893 
	C164.200607,78.167953 162.885651,79.149971 161.628662,80.201263 
	C153.392563,87.089470 145.169006,93.992638 136.195923,100.985748 
	C135.700592,101.003304 135.060394,100.824341 134.731064,101.067093 
	C125.883583,107.588470 118.677811,115.623260 112.242271,125.266754 
	C112.098801,125.740379 112.018364,126.245041 111.802666,126.683098 
	C106.183723,138.094101 100.550743,149.498184 94.418419,161.065689 
	C94.330681,161.370453 94.242943,161.675201 94.006966,162.428680 
	C94.006966,162.428680 93.931007,162.895096 93.429337,163.060272 
	C93.337799,163.364410 93.246269,163.668564 93.002419,164.432785 
	C93.002419,164.432785 92.912033,164.908920 92.328583,165.147446 
	C92.188477,165.753876 92.048370,166.360321 91.982719,166.941483 
z"/>
<path fill="#197043" opacity="1.000000" stroke="none" 
	d="
M415.134094,340.111725 
	C407.616425,348.057526 400.612213,356.581635 392.463257,363.816376 
	C379.578613,375.255524 365.000793,384.350647 349.223022,391.448303 
	C332.872742,398.803436 315.932312,404.053833 298.073059,406.028839 
	C290.530396,406.862976 282.950256,407.906799 275.386749,407.910156 
	C239.910828,407.926025 206.734467,399.436798 176.309174,379.637024 
	C175.557388,377.136414 175.393738,375.090637 174.602844,373.325928 
	C170.595535,364.384705 166.681396,355.386078 162.238907,346.659943 
	C157.951477,338.238403 154.946640,329.958405 160.015060,320.840912 
	C160.169800,320.562531 160.154846,320.192932 160.235901,319.870087 
	C164.025635,304.774231 167.981583,289.717010 171.501282,274.558502 
	C172.466232,270.402740 173.846481,265.002319 172.087296,261.785828 
	C164.203751,247.371552 155.376846,233.463470 146.637619,219.531296 
	C142.677185,213.217514 140.127411,206.957153 142.824829,199.423264 
	C143.879410,196.477783 144.743652,193.320236 144.896133,190.220016 
	C145.644516,175.004440 151.507523,161.658127 159.682327,149.195267 
	C160.729263,147.599152 163.366791,146.177139 165.266312,146.178619 
	C170.213348,146.182480 175.197800,146.788315 180.097443,147.584152 
	C187.402237,148.770660 187.839645,148.438736 188.063538,141.249420 
	C188.168976,137.864075 187.928879,133.775482 189.675751,131.294174 
	C192.373596,127.462097 196.279114,124.145729 200.317932,121.659081 
	C209.908539,115.754257 219.908646,110.518173 229.684158,104.908813 
	C236.883423,100.777748 244.063110,96.599922 251.062805,92.146332 
	C252.209152,91.416939 253.309158,88.171219 252.860443,87.746208 
	C246.496475,81.718483 242.097656,73.063759 232.315247,71.437454 
	C227.346115,70.611351 221.973663,68.640823 217.397675,69.741302 
	C206.907990,72.263969 196.572754,75.410141 185.697342,75.171616 
	C181.399109,75.077332 176.301270,77.021301 173.030960,72.143150 
	C189.598587,60.366474 208.181442,53.118626 227.686661,48.041557 
	C241.130020,44.542343 254.771591,43.226776 268.730865,42.697849 
	C289.997375,41.892048 310.527832,45.169170 330.496246,51.391773 
	C349.075562,57.181507 366.465668,65.981041 381.553467,78.658554 
	C379.774933,78.411835 378.218201,77.863029 376.656097,77.329956 
	C372.438385,75.890640 367.826813,72.580620 364.070526,73.364113 
	C351.251617,76.037888 337.253571,72.957581 325.523224,81.134666 
	C321.625092,83.852036 317.284149,85.945480 313.086975,88.215752 
	C311.815643,88.903427 310.292755,89.765472 308.978302,89.631699 
	C299.411865,88.658188 289.886871,87.251488 280.311493,86.403030 
	C275.677979,85.992462 270.675415,84.313805 266.478699,88.074417 
	C259.466431,94.357941 252.916458,101.263023 245.375259,106.826683 
	C232.970993,115.978172 219.996246,124.366852 207.123917,132.868042 
	C202.328140,136.035278 202.149445,137.068436 206.388443,140.669510 
	C212.376205,145.756195 218.135727,151.111557 224.427597,156.741089 
	C221.524414,158.118347 218.445480,159.610352 215.340576,161.046249 
	C204.533737,166.043945 193.774811,171.152161 182.869965,175.926682 
	C179.705643,177.312134 178.481262,179.199936 179.005341,182.409180 
	C181.168472,195.655228 183.307602,208.905640 185.579742,222.133118 
	C186.138367,225.385239 187.859070,228.559677 187.846115,231.764969 
	C187.808517,241.052200 192.391159,247.235886 199.555817,252.440231 
	C210.676224,260.518036 221.601791,268.874298 232.378998,277.404358 
	C234.183945,278.832977 235.676392,281.666931 235.863968,283.969574 
	C237.440262,303.319427 238.651230,322.698822 240.076355,342.061676 
	C240.177994,343.442627 240.783905,345.057159 241.704315,346.058441 
	C244.972092,349.613373 248.337433,353.112335 251.986801,356.260437 
	C252.967041,357.106079 255.601501,357.361084 256.604736,356.652649 
	C270.040924,347.164124 283.356506,337.502869 296.604767,327.752319 
	C298.557098,326.315430 300.677551,324.480835 301.581329,322.347717 
	C307.192810,309.103577 312.776245,295.831787 317.773224,282.348389 
	C321.335907,272.735138 323.744446,262.698761 327.130676,253.012985 
	C328.314636,249.626434 330.138641,245.278198 332.939209,243.840012 
	C348.005432,236.103073 363.433350,229.062134 378.823212,221.969269 
	C383.175262,219.963501 387.853912,221.595169 389.536072,225.242203 
	C395.706085,238.619385 401.861786,252.003708 407.893890,265.443237 
	C408.608429,267.035156 408.933502,269.028290 408.745697,270.760223 
	C407.853119,278.990814 407.767609,278.981537 416.168427,278.998627 
	C417.001709,279.000336 417.872375,278.846710 418.659943,279.037170 
	C420.018188,279.365692 421.324738,279.908020 422.652985,280.360657 
	C421.828461,281.651001 421.136139,283.053253 420.155762,284.211670 
	C416.557983,288.462555 411.767822,292.109863 409.459686,296.953247 
	C405.844574,304.539215 404.009735,312.958069 401.182098,320.939545 
	C398.669220,328.032562 403.861115,332.662872 406.778442,337.723114 
	C407.817780,339.525879 412.250397,339.372284 415.134094,340.111725 
z"/>
<path fill="#1A653B" opacity="1.000000" stroke="none" 
	d="
M415.117615,340.078430 
	C412.250397,339.372284 407.817780,339.525879 406.778442,337.723114 
	C403.861115,332.662872 398.669220,328.032562 401.182098,320.939545 
	C404.009735,312.958069 405.844574,304.539215 409.459686,296.953247 
	C411.767822,292.109863 416.557983,288.462555 420.155762,284.211670 
	C421.136139,283.053253 421.828461,281.651001 422.652985,280.360657 
	C421.324738,279.908020 420.018188,279.365692 418.659943,279.037170 
	C417.872375,278.846710 417.001709,279.000336 416.168427,278.998627 
	C407.767609,278.981537 407.853119,278.990814 408.745697,270.760223 
	C408.933502,269.028290 408.608429,267.035156 407.893890,265.443237 
	C401.861786,252.003708 395.706085,238.619385 389.536072,225.242203 
	C387.853912,221.595169 383.175262,219.963501 378.823212,221.969269 
	C363.433350,229.062134 348.005432,236.103073 332.939209,243.840012 
	C330.138641,245.278198 328.314636,249.626434 327.130676,253.012985 
	C323.744446,262.698761 321.335907,272.735138 317.773224,282.348389 
	C312.776245,295.831787 307.192810,309.103577 301.581329,322.347717 
	C300.677551,324.480835 298.557098,326.315430 296.604767,327.752319 
	C283.356506,337.502869 270.040924,347.164124 256.604736,356.652649 
	C255.601501,357.361084 252.967041,357.106079 251.986801,356.260437 
	C248.337433,353.112335 244.972092,349.613373 241.704315,346.058441 
	C240.783905,345.057159 240.177994,343.442627 240.076355,342.061676 
	C238.651230,322.698822 237.440262,303.319427 235.863968,283.969574 
	C235.676392,281.666931 234.183945,278.832977 232.378998,277.404358 
	C221.601791,268.874298 210.676224,260.518036 199.555817,252.440231 
	C192.391159,247.235886 187.808517,241.052200 187.846115,231.764969 
	C187.859070,228.559677 186.138367,225.385239 185.579742,222.133118 
	C183.307602,208.905640 181.168472,195.655228 179.005341,182.409180 
	C178.481262,179.199936 179.705643,177.312134 182.869965,175.926682 
	C193.774811,171.152161 204.533737,166.043945 215.340576,161.046249 
	C218.445480,159.610352 221.524414,158.118347 224.427597,156.741089 
	C218.135727,151.111557 212.376205,145.756195 206.388443,140.669510 
	C202.149445,137.068436 202.328140,136.035278 207.123917,132.868042 
	C219.996246,124.366852 232.970993,115.978172 245.375259,106.826683 
	C252.916458,101.263023 259.466431,94.357941 266.478699,88.074417 
	C270.675415,84.313805 275.677979,85.992462 280.311493,86.403030 
	C289.886871,87.251488 299.411865,88.658188 308.978302,89.631699 
	C310.292755,89.765472 311.815643,88.903427 313.086975,88.215752 
	C317.284149,85.945480 321.625092,83.852036 325.523224,81.134666 
	C337.253571,72.957581 351.251617,76.037888 364.070526,73.364113 
	C367.826813,72.580620 372.438385,75.890640 376.656097,77.329956 
	C378.218201,77.863029 379.774933,78.411835 381.722229,78.958176 
	C386.308624,82.013779 390.870575,84.673645 394.642883,88.182465 
	C412.020508,104.346405 426.847931,122.503769 436.796326,144.809967 
	C434.358276,148.447098 431.759979,151.264648 429.935608,154.516388 
	C428.202942,157.604691 426.655548,161.051498 426.125275,164.509125 
	C424.847778,172.838562 424.421722,181.295441 423.266815,189.647629 
	C421.775177,200.434784 421.427582,210.755981 430.961121,218.650055 
	C427.654419,222.298950 424.538574,225.696625 421.140503,229.221466 
	C420.565704,229.865158 420.273193,230.381668 419.984558,230.942322 
	C419.988403,230.986450 419.903442,231.011566 419.715942,231.195557 
	C419.390564,231.701340 419.252747,232.023148 419.162048,232.427032 
	C419.209229,232.509094 419.144958,232.687164 419.106079,233.075439 
	C419.419952,234.921860 419.772705,236.380020 420.320557,237.947083 
	C420.515656,238.056015 420.918488,238.249496 420.882629,238.595154 
	C420.831207,239.644089 420.815643,240.347382 420.528687,241.186340 
	C419.480957,241.567871 418.704590,241.813736 417.602478,242.037109 
	C416.841736,242.007080 416.406769,241.999573 415.995483,241.989502 
	C416.019196,241.986954 416.014465,242.034424 415.905365,241.807037 
	C415.534912,241.374100 415.273560,241.168533 415.020508,240.970581 
	C415.028870,240.978210 415.041931,240.996658 415.053986,240.663422 
	C415.051514,239.886261 415.036957,239.442307 415.237854,238.812073 
	C415.984802,237.425095 416.516327,236.224442 417.044067,234.645813 
	C417.038208,233.511856 417.036072,232.755875 417.147461,231.890594 
	C417.396423,231.451462 417.299225,231.194504 416.945068,230.654282 
	C416.901764,229.584641 416.882782,228.871109 416.892487,227.809845 
	C416.340942,226.625366 415.760712,225.788635 415.146454,224.506073 
	C415.033325,221.087967 414.954254,218.115707 414.908691,214.770844 
	C414.347961,213.252197 413.753723,212.106140 413.132324,210.547409 
	C413.067108,208.756882 413.028961,207.379059 413.193176,205.714920 
	C413.209259,201.559174 413.022980,197.689743 412.858154,193.416077 
	C413.229156,191.230194 413.587006,189.450134 413.926849,187.666626 
	C415.962830,176.980911 417.842133,166.262024 420.100189,155.623489 
	C421.052582,151.136322 422.193756,146.488113 424.354401,142.514053 
	C426.590668,138.400894 425.635162,136.417511 421.800720,134.543335 
	C421.498810,133.836761 421.230316,133.400879 420.884277,132.739502 
	C420.591827,132.223160 420.308319,132.119141 419.923096,132.147186 
	C419.889954,132.092422 419.765228,132.121201 419.639648,131.814911 
	C414.326233,126.646858 409.138397,121.785072 403.889862,116.575089 
	C400.174561,108.510162 396.519958,100.793427 392.778809,92.730400 
	C382.129913,88.625092 371.567535,84.866066 360.673401,80.915321 
	C356.216248,81.132469 352.090881,81.541344 347.521851,81.923599 
	C342.034363,82.537697 336.990448,83.178406 331.592712,83.875977 
	C324.729706,87.595222 318.308899,91.430817 311.661133,94.821526 
	C309.476288,95.935928 306.662720,96.465118 304.206818,96.288231 
	C293.778778,95.537148 283.377045,94.420311 272.594666,93.320969 
	C270.618195,93.752525 268.628876,93.880295 267.481812,94.929184 
	C264.441254,97.709518 261.764709,100.887985 258.709961,104.011040 
	C258.303375,104.398911 258.130249,104.683800 257.981506,104.976158 
	C258.005920,104.983627 257.963440,104.951653 257.740540,105.034065 
	C257.213196,105.273483 257.029419,105.520348 256.628754,105.949890 
	C242.837616,115.129196 229.384109,124.215698 215.113602,133.853989 
	C226.979935,139.886841 237.920242,145.448914 248.729141,151.293549 
	C247.392853,152.376221 246.187958,153.176315 244.619263,154.003845 
	C225.464508,162.661377 206.673584,171.291473 187.549881,180.053406 
	C187.001221,181.522903 186.443787,182.910553 186.630966,184.189209 
	C187.299911,188.758301 188.178833,193.298660 189.055771,197.834915 
	C191.365570,209.782990 193.716019,221.723221 196.295715,233.911499 
	C211.288940,245.184586 226.036713,256.212708 240.922058,267.514160 
	C241.433563,268.507568 241.807510,269.227661 242.114395,270.391052 
	C243.712631,292.284454 245.377960,313.734589 247.106781,335.517883 
	C249.296783,340.212830 252.235153,339.277252 255.322861,337.067535 
	C261.399506,332.718811 267.361328,328.202057 273.546448,324.014496 
	C281.546082,318.598450 288.893646,313.224335 291.955902,302.972870 
	C295.356262,291.589600 300.820587,280.839508 304.953430,269.653809 
	C309.141144,258.319672 312.702759,246.755157 316.789642,235.381744 
	C317.442535,233.564774 319.103577,231.579315 320.818787,230.757233 
	C337.255066,222.879593 353.729675,215.069901 370.384888,207.672073 
	C373.494873,206.290710 377.492828,206.338882 381.019196,206.591064 
	C387.113342,207.026871 393.159088,208.139389 399.457764,209.197037 
	C403.525574,216.521484 407.360779,223.616898 410.968201,230.950226 
	C409.468933,231.157303 408.197418,231.126465 406.936584,231.081268 
	C406.947235,231.066895 406.915894,231.049622 406.931641,230.683868 
	C404.963196,228.557770 402.978973,226.797424 400.795654,225.125824 
	C400.522491,225.339447 400.366943,225.557358 400.386871,225.574768 
	C400.583527,225.746872 400.809235,225.885696 401.022095,226.011658 
	C401.017517,225.989349 400.990326,225.952835 400.919006,226.318451 
	C400.950104,227.420944 401.052521,228.157806 400.960388,229.087341 
	C401.201752,229.839706 401.637604,230.399399 402.044800,230.980042 
	C402.016113,231.000992 402.043549,230.935516 402.072327,231.229462 
	C402.406342,232.008774 402.711578,232.494171 403.235474,233.255753 
	C404.644318,236.060852 405.764160,238.625824 407.040100,241.110657 
	C409.254883,245.423935 411.566132,249.687668 414.149658,254.064911 
	C414.674866,254.203659 414.887390,254.249649 415.199677,254.631592 
	C418.096069,255.648590 420.863373,256.657318 423.698181,256.910583 
	C426.115021,257.126526 426.551910,255.685989 424.609314,253.639313 
	C421.935547,252.936768 419.553955,252.438843 417.207611,251.611237 
	C417.798645,249.851822 418.354401,248.422073 419.233337,246.952332 
	C420.363220,246.613464 421.169861,246.314575 422.233612,246.231171 
	C424.678833,246.963608 426.866974,247.480591 429.242920,247.877045 
	C429.666443,247.568726 429.858337,247.343582 430.395569,247.063782 
	C432.551880,246.634979 434.319061,246.223557 436.101624,245.542206 
	C436.121246,244.910095 436.125427,244.547913 436.333679,243.876404 
	C436.681305,242.363388 436.824829,241.159683 436.983154,239.978638 
	C436.998016,240.001312 436.949860,239.976334 437.286194,239.920166 
	C438.364655,238.542099 439.106781,237.220200 439.923828,235.948212 
	C439.998779,235.998123 439.844727,235.905106 440.046021,235.780518 
	C440.173462,235.139618 440.099579,234.623276 439.650330,234.075226 
	C437.586060,234.471298 435.897217,234.899109 433.938354,234.986710 
	C433.431488,232.755936 433.319000,230.838959 432.924255,228.981949 
	C432.490051,226.939484 431.796265,224.952209 431.230774,222.597656 
	C431.366058,220.907242 431.486176,219.560043 432.025452,218.167084 
	C434.176758,218.512161 435.902924,218.932114 437.642090,219.288574 
	C443.708496,220.531921 449.779388,221.753296 455.848602,222.983017 
	C455.871002,225.411636 455.893402,227.840240 455.502441,230.689240 
	C454.398560,231.066025 453.708038,231.022415 452.648499,230.840408 
	C450.300690,230.516388 448.321899,230.330750 445.741821,230.088715 
	C446.315765,233.909637 446.766724,236.911697 447.222046,240.270782 
	C449.765930,243.332291 452.305420,246.036819 454.844910,248.741333 
	C454.579041,250.277191 454.313141,251.813065 453.683472,253.830017 
	C449.544739,258.890961 445.769806,263.470795 441.641663,267.994995 
	C439.804291,267.321625 438.320129,266.703918 436.566315,265.973999 
	C433.948517,271.403015 431.408234,276.671326 428.646759,282.109131 
	C427.926025,283.069244 427.426483,283.859802 426.638000,284.847168 
	C419.027740,290.688812 413.232880,297.322876 411.924530,307.307343 
	C410.476562,311.731689 409.228241,315.842621 408.085388,320.302765 
	C410.125885,320.811432 412.272308,321.579895 413.949829,320.997620 
	C417.000946,319.938538 419.658234,317.755310 422.703003,316.663727 
	C424.725159,315.938782 427.135315,316.296021 429.278015,316.536011 
	C428.467194,319.590271 427.750153,322.277344 427.033081,324.964417 
	C423.588165,329.533112 420.143219,334.101807 416.192780,338.975952 
	C415.468414,339.543823 415.249573,339.806244 415.030731,340.068634 
	C415.030731,340.068634 415.101166,340.045135 415.117615,340.078430 
M324.467560,83.495834 
	C324.467560,83.495834 324.513123,83.477516 324.467560,83.495834 
z"/>
<path fill="#19653C" opacity="1.000000" stroke="none" 
	d="
M172.708160,72.227684 
	C176.301270,77.021301 181.399109,75.077332 185.697342,75.171616 
	C196.572754,75.410141 206.907990,72.263969 217.397675,69.741302 
	C221.973663,68.640823 227.346115,70.611351 232.315247,71.437454 
	C242.097656,73.063759 246.496475,81.718483 252.860443,87.746208 
	C253.309158,88.171219 252.209152,91.416939 251.062805,92.146332 
	C244.063110,96.599922 236.883423,100.777748 229.684158,104.908813 
	C219.908646,110.518173 209.908539,115.754257 200.317932,121.659081 
	C196.279114,124.145729 192.373596,127.462097 189.675751,131.294174 
	C187.928879,133.775482 188.168976,137.864075 188.063538,141.249420 
	C187.839645,148.438736 187.402237,148.770660 180.097443,147.584152 
	C175.197800,146.788315 170.213348,146.182480 165.266312,146.178619 
	C163.366791,146.177139 160.729263,147.599152 159.682327,149.195267 
	C151.507523,161.658127 145.644516,175.004440 144.896133,190.220016 
	C144.743652,193.320236 143.879410,196.477783 142.824829,199.423264 
	C140.127411,206.957153 142.677185,213.217514 146.637619,219.531296 
	C155.376846,233.463470 164.203751,247.371552 172.087296,261.785828 
	C173.846481,265.002319 172.466232,270.402740 171.501282,274.558502 
	C167.981583,289.717010 164.025635,304.774231 160.235901,319.870087 
	C160.154846,320.192932 160.169800,320.562531 160.015060,320.840912 
	C154.946640,329.958405 157.951477,338.238403 162.238907,346.659943 
	C166.681396,355.386078 170.595535,364.384705 174.602844,373.325928 
	C175.393738,375.090637 175.557388,377.136414 176.015366,379.445129 
	C170.452393,376.146027 164.884354,372.454407 159.127472,368.098083 
	C158.549408,366.023560 158.353363,364.523010 157.740585,363.218231 
	C152.670609,352.422974 147.341995,341.743774 142.539108,330.832489 
	C141.462662,328.387024 141.446808,324.987366 142.130630,322.333069 
	C146.712952,304.546631 151.762833,286.880585 156.336700,269.092102 
	C157.942245,262.847839 158.270737,256.462189 151.965500,251.644012 
	C150.982895,250.163773 150.058136,249.015717 149.110229,247.503723 
	C147.799332,245.365402 146.511581,243.591003 145.170349,241.456024 
	C143.778687,239.030807 142.440506,236.966217 141.042770,234.622467 
	C140.671967,233.876663 140.360733,233.410004 139.932556,232.739136 
	C139.629929,232.276627 139.403763,232.060715 139.120850,231.531860 
	C138.426758,230.096054 137.748962,229.015533 137.042236,227.605621 
	C136.389343,226.475372 135.765381,225.674530 135.090576,224.549164 
	C134.376953,223.461700 133.714172,222.698746 132.942169,221.726700 
	C132.651077,221.252823 132.420654,221.040771 132.124451,220.525864 
	C131.424118,219.090820 130.741043,218.011368 129.935333,216.731262 
	C129.619019,216.277603 129.383759,216.072220 129.056580,215.632553 
	C128.704544,214.876007 128.402863,214.401337 128.074280,213.590302 
	C127.376495,212.482666 126.705650,211.711365 125.930214,210.729645 
	C125.646965,210.253479 125.419273,210.040085 125.130325,209.466293 
	C125.193871,207.896927 125.149017,206.717316 125.364189,205.587219 
	C127.338058,195.220795 129.195374,184.827972 131.426666,174.516434 
	C132.662598,168.804688 132.606476,162.807083 136.541306,157.678802 
	C141.521042,151.188690 145.581192,144.000412 150.378876,137.359543 
	C152.331635,134.656555 154.985825,130.899399 157.660507,130.593719 
	C163.820114,129.889740 170.240372,130.635941 176.452316,131.516846 
	C180.489136,132.089310 181.696243,131.073761 182.128204,127.109756 
	C183.116577,118.039650 187.495712,111.092926 195.652725,106.385574 
	C207.256989,99.688858 218.624252,92.578987 230.025360,85.536499 
	C231.152405,84.840309 231.810898,83.385628 232.686874,82.282990 
	C231.400696,81.483261 230.114517,80.683533 228.673248,79.558594 
	C223.541840,78.541878 218.281586,76.506325 213.657684,77.483109 
	C207.193909,78.848549 201.204834,82.461174 194.611115,85.121521 
	C189.869370,80.915771 184.559769,81.938934 179.356888,82.380005 
	C176.262833,82.642303 173.168289,82.898460 169.773529,82.998978 
	C168.638855,81.546608 167.804611,80.252632 166.955704,78.617538 
	C166.840912,77.833084 166.740768,77.389732 166.735535,76.753586 
	C166.830444,76.560791 166.840561,76.131126 166.840561,76.131126 
	C168.688828,74.858162 170.537094,73.585190 172.708160,72.227684 
z"/>
<path fill="#D9E882" opacity="1.000000" stroke="none" 
	d="
M112.880356,124.941795 
	C118.677811,115.623260 125.883583,107.588470 134.731064,101.067093 
	C135.060394,100.824341 135.700592,101.003304 136.818039,101.188316 
	C145.963303,105.262772 154.486435,109.134659 162.921906,113.330063 
	C161.738678,115.051987 160.725952,116.526176 159.530319,117.833023 
	C157.061356,120.531662 154.494888,123.141113 151.661072,125.946129 
	C144.863739,135.503769 138.315567,144.863235 131.930801,154.332870 
	C130.577042,156.340714 129.819778,158.750763 128.473328,161.073669 
	C126.603004,163.447983 124.943420,165.661057 123.512100,168.013031 
	C120.291542,173.305054 117.184120,178.665924 113.660431,183.860962 
	C112.857468,182.045517 112.023270,180.359116 112.059586,178.691681 
	C112.243690,170.238510 112.616615,161.788544 113.005615,153.341232 
	C113.134804,150.535828 113.773590,147.736404 113.717888,144.943451 
	C113.584854,138.273315 113.177147,131.608658 112.880356,124.941795 
M148.890427,125.639465 
	C148.890427,125.639465 149.178604,125.438858 149.178604,125.438858 
	C149.178604,125.438858 148.796677,125.466705 148.890427,125.639465 
z"/>
<path fill="#1A7044" opacity="1.000000" stroke="none" 
	d="
M455.899902,222.519882 
	C449.779388,221.753296 443.708496,220.531921 437.642090,219.288574 
	C435.902924,218.932114 434.176758,218.512161 431.917786,218.226318 
	C431.390961,218.331345 431.152008,218.398819 431.152008,218.398819 
	C421.427582,210.755981 421.775177,200.434784 423.266815,189.647629 
	C424.421722,181.295441 424.847778,172.838562 426.125275,164.509125 
	C426.655548,161.051498 428.202942,157.604691 429.935608,154.516388 
	C431.759979,151.264648 434.358276,148.447098 436.838013,145.167145 
	C444.416016,157.676392 449.011749,171.581436 451.811584,185.880249 
	C454.136627,197.754013 454.640564,209.984360 455.899902,222.519882 
z"/>
<path fill="#B2CC64" opacity="1.000000" stroke="none" 
	d="
M132.893204,351.063171 
	C126.817329,341.767761 120.614189,332.551453 114.754395,323.121735 
	C113.275688,320.742188 112.894463,317.680634 111.922325,314.255493 
	C111.591415,313.055908 111.347076,312.533356 111.102737,312.010773 
	C111.102737,312.010773 110.982834,311.583344 110.924240,311.035339 
	C110.615219,309.661133 110.364792,308.834869 110.114372,308.008636 
	C110.114372,308.008636 109.995369,307.580139 109.869453,307.145691 
	C109.575005,306.449066 109.372345,306.216644 109.135559,306.014008 
	C109.135559,306.014008 109.015434,305.555939 108.976456,304.910126 
	C108.608711,302.322083 108.419792,300.343628 107.927269,298.443848 
	C105.647011,289.648499 103.282433,280.875061 101.417999,272.064362 
	C107.186974,271.693604 112.484467,271.325317 117.785675,271.022186 
	C120.429329,270.871033 121.498024,269.761200 120.380157,267.154785 
	C115.926941,256.771667 111.465927,246.391937 106.913376,235.671051 
	C100.601631,233.220947 94.384308,231.110733 88.166977,229.000504 
	C88.781487,226.915955 89.396004,224.831390 90.261871,222.268127 
	C90.839821,221.699829 91.045296,221.490997 91.129654,221.162903 
	C91.129654,221.162903 91.141716,221.109100 91.477814,221.004669 
	C94.504814,216.926392 97.195702,212.952545 100.161591,208.968079 
	C100.620041,208.959030 100.803490,208.960648 101.007736,209.360184 
	C102.008743,213.442627 102.814308,217.185562 104.021675,220.794067 
	C105.082016,223.963135 106.592583,226.981552 108.158737,230.121979 
	C111.527435,223.247772 114.569557,216.284103 117.808144,209.413025 
	C118.589165,207.755981 120.020576,206.405487 121.113304,204.916840 
	C121.073715,204.919662 121.104645,204.846573 121.074707,205.328476 
	C121.691246,227.549179 122.337715,249.287964 122.748611,271.315521 
	C121.407249,277.455872 120.193871,283.289673 119.220833,289.163269 
	C117.758614,297.989655 116.416748,306.836945 115.116875,315.688995 
	C114.305107,321.217041 115.858757,322.955078 121.407944,322.990082 
	C126.232788,323.020508 131.057892,323.009888 135.955811,323.250946 
	C136.028732,323.484497 136.083847,323.970703 135.821442,324.297485 
	C135.372879,331.172516 135.349197,337.731628 134.912918,344.263123 
	C134.759186,346.564514 133.595673,348.798431 132.893204,351.063171 
z"/>
<path fill="#E4ED8C" opacity="1.000000" stroke="none" 
	d="
M112.561310,125.104279 
	C113.177147,131.608658 113.584854,138.273315 113.717888,144.943451 
	C113.773590,147.736404 113.134804,150.535828 113.005615,153.341232 
	C112.616615,161.788544 112.243690,170.238510 112.059586,178.691681 
	C112.023270,180.359116 112.857468,182.045517 113.508499,184.164673 
	C113.147766,186.068405 112.568726,187.530624 111.699959,188.827560 
	C108.707359,186.231796 106.049515,183.748795 103.290558,181.383743 
	C99.580605,178.203491 95.792625,175.114273 92.027222,171.565308 
	C91.978661,169.742661 91.941017,168.340652 91.903374,166.938644 
	C91.903374,166.938644 91.982719,166.941483 92.171524,166.755615 
	C92.544235,166.016144 92.728134,165.462540 92.912033,164.908920 
	C92.912033,164.908920 93.002419,164.432785 93.247009,164.053131 
	C93.700577,163.449310 93.847054,163.189850 93.931007,162.895096 
	C93.931007,162.895096 94.006966,162.428680 94.247345,162.053894 
	C94.695312,161.455933 94.839462,161.197372 94.920174,160.903458 
	C100.550743,149.498184 106.183723,138.094101 111.802666,126.683098 
	C112.018364,126.245041 112.098801,125.740379 112.561310,125.104279 
z"/>
<path fill="#53501E" opacity="1.000000" stroke="none" 
	d="
M136.083832,323.970703 
	C136.083847,323.970703 136.028732,323.484497 136.038940,322.964294 
	C136.104294,322.052673 136.159424,321.661316 136.435410,320.969574 
	C139.883621,310.252777 143.110992,299.836304 146.553497,289.087158 
	C148.928207,278.192200 151.087799,267.629944 153.281433,256.709717 
	C152.695007,255.076080 152.074539,253.800400 151.596466,252.387665 
	C151.738831,252.250595 152.023331,251.976196 152.023331,251.976196 
	C158.270737,256.462189 157.942245,262.847839 156.336700,269.092102 
	C151.762833,286.880585 146.712952,304.546631 142.130630,322.333069 
	C141.446808,324.987366 141.462662,328.387024 142.539108,330.832489 
	C147.341995,341.743774 152.670609,352.422974 157.740585,363.218231 
	C158.353363,364.523010 158.549408,366.023560 158.910522,367.841339 
	C151.687912,364.691711 144.493378,361.134094 137.594040,357.190491 
	C143.596024,359.198456 149.302811,361.592407 155.053818,364.111237 
	C155.183395,364.265839 155.268738,364.295593 155.354095,364.325348 
	C155.228653,364.223511 155.103226,364.121674 155.032166,363.644775 
	C148.752289,350.170044 142.418060,337.070374 136.083832,323.970703 
z"/>
<path fill="#E3EC8B" opacity="1.000000" stroke="none" 
	d="
M163.009583,113.006546 
	C154.486435,109.134659 145.963303,105.262772 137.190750,101.140900 
	C145.169006,93.992638 153.392563,87.089470 161.628662,80.201263 
	C162.885651,79.149971 164.200607,78.167953 165.932861,77.084290 
	C166.376968,77.014687 166.640640,76.946381 166.640640,76.946381 
	C166.740768,77.389732 166.840912,77.833084 166.710571,78.906342 
	C165.984573,85.055183 165.549042,90.580353 164.976883,96.091331 
	C164.390747,101.736961 163.670914,107.368721 163.009583,113.006546 
z"/>
<path fill="#A5BA56" opacity="1.000000" stroke="none" 
	d="
M135.821426,324.297485 
	C142.418060,337.070374 148.752289,350.170044 155.041183,363.636719 
	C154.995850,364.003693 155.009598,363.986389 155.009598,363.986389 
	C149.302811,361.592407 143.596024,359.198456 137.520172,356.850891 
	C135.768982,355.180969 134.386856,353.464722 132.948975,351.405823 
	C133.595673,348.798431 134.759186,346.564514 134.912918,344.263123 
	C135.349197,337.731628 135.372879,331.172516 135.821426,324.297485 
z"/>
<path fill="#A6C055" opacity="1.000000" stroke="none" 
	d="
M88.096809,229.396698 
	C94.384308,231.110733 100.601631,233.220947 106.891037,236.016541 
	C106.637436,237.798813 106.311760,238.895691 105.696503,240.171982 
	C104.250862,242.138336 102.972626,243.859131 101.962265,245.724976 
	C99.222061,250.785309 96.595467,255.907181 93.724518,260.787476 
	C93.063446,259.710785 92.601700,258.851288 92.139946,257.991760 
	C92.139946,257.991760 92.007378,257.567596 92.000809,256.880768 
	C91.415955,250.490234 90.963539,244.769455 90.193466,239.091766 
	C89.910866,237.008255 88.876305,235.026718 88.184769,232.998672 
	C88.132065,231.930069 88.079353,230.861481 88.096809,229.396698 
z"/>
<path fill="#D5E683" opacity="1.000000" stroke="none" 
	d="
M92.038147,171.985962 
	C95.792625,175.114273 99.580605,178.203491 103.290558,181.383743 
	C106.049515,183.748795 108.707359,186.231796 111.557281,189.140182 
	C110.448006,191.768967 109.381989,194.063187 107.893494,196.039154 
	C105.256439,199.539856 102.362663,202.847168 99.398170,205.909500 
	C98.116386,200.557190 97.012756,195.530777 95.917130,190.065857 
	C95.334671,187.749237 94.744202,185.871155 94.153732,183.993073 
	C94.153732,183.993073 93.994095,183.559219 93.983513,182.929001 
	C93.369316,180.205902 92.765709,178.113007 92.162094,176.020126 
	C92.162094,176.020126 92.000084,175.573929 91.987129,174.950836 
	C91.995499,173.547165 92.016823,172.766556 92.038147,171.985962 
z"/>
<path fill="#8CAB4F" opacity="1.000000" stroke="none" 
	d="
M427.294708,324.936890 
	C427.750153,322.277344 428.467194,319.590271 429.472229,316.265015 
	C430.448303,313.944550 431.136444,312.262299 432.063507,309.995880 
	C429.133606,309.995880 427.071136,309.995880 425.059631,309.644836 
	C429.300415,302.727783 433.490173,296.161835 438.294220,288.633240 
	C439.282654,292.369598 439.674866,294.815826 440.593323,297.045258 
	C441.461456,299.152557 442.882446,301.032104 443.905090,303.334198 
	C440.974915,311.003632 437.912537,318.139648 430.426880,322.091797 
	C430.195099,322.214111 430.135132,322.661774 429.995087,322.957794 
	C429.995087,322.957794 429.996643,322.987976 429.706177,323.046265 
	C429.004822,323.431976 428.593903,323.759430 428.183014,324.086884 
	C427.974121,324.361023 427.765228,324.635162 427.294708,324.936890 
z"/>
<path fill="#A4BF57" opacity="1.000000" stroke="none" 
	d="
M428.867920,281.939636 
	C431.408234,276.671326 433.948517,271.403015 436.566315,265.973999 
	C438.320129,266.703918 439.804291,267.321625 441.726593,268.317993 
	C445.757660,271.795380 449.350525,274.894073 452.943420,277.992798 
	C453.011566,278.162476 453.079742,278.332184 452.882477,278.722046 
	C452.411682,278.960175 452.206299,278.978119 451.652191,279.034485 
	C448.725067,280.805298 445.655090,282.105011 443.670349,284.359924 
	C439.507812,289.089172 435.774719,287.673981 431.798584,284.498749 
	C430.786133,283.690247 429.842926,282.795044 428.867920,281.939636 
z"/>
<path fill="#22683D" opacity="1.000000" stroke="none" 
	d="
M95.909119,190.504379 
	C97.012756,195.530777 98.116386,200.557190 99.415977,206.223602 
	C99.766190,207.252975 99.920456,207.642334 100.007950,208.264542 
	C99.941185,208.497375 99.886589,208.978714 99.886589,208.978714 
	C97.195702,212.952545 94.504814,216.926392 91.499054,221.022247 
	C92.133347,210.294525 93.082497,199.444794 94.371613,188.392807 
	C95.110756,188.961823 95.509941,189.733109 95.909119,190.504379 
z"/>
<path fill="#8CAB4F" opacity="1.000000" stroke="none" 
	d="
M453.118011,277.609589 
	C449.350525,274.894073 445.757660,271.795380 442.079834,268.373657 
	C445.769806,263.470795 449.544739,258.890961 453.635376,254.223083 
	C453.916626,257.429932 453.882111,260.724823 453.683746,264.711395 
	C453.600220,266.301422 453.680603,267.199829 453.760986,268.098206 
	C453.604858,271.140930 453.448730,274.183655 453.118011,277.609589 
z"/>
<path fill="#9EB75B" opacity="1.000000" stroke="none" 
	d="
M100.948059,272.093750 
	C103.282433,280.875061 105.647011,289.648499 107.927269,298.443848 
	C108.419792,300.343628 108.608711,302.322083 108.910255,304.682800 
	C106.146141,298.044067 103.382622,290.997040 100.680550,283.926514 
	C98.389977,277.932709 96.170418,271.911835 93.959984,265.453308 
	C94.000526,265.003662 94.158539,264.860046 94.453316,265.011017 
	C96.793373,266.477570 98.838646,267.793152 100.874603,269.481140 
	C100.892883,270.600250 100.920464,271.347015 100.948059,272.093750 
z"/>
<path fill="#50572E" opacity="1.000000" stroke="none" 
	d="
M452.000916,278.996094 
	C452.206299,278.978119 452.411682,278.960175 452.922119,278.993500 
	C452.953583,283.719543 452.325043,288.407227 452.494751,293.065796 
	C452.714783,299.105286 449.034973,302.575470 445.348663,306.443817 
	C443.405273,308.483124 441.973053,311.361298 441.220856,314.109985 
	C439.704559,319.650970 435.995300,322.079590 430.377777,322.958252 
	C430.135132,322.661774 430.195099,322.214111 430.426880,322.091797 
	C437.912537,318.139648 440.974915,311.003632 444.197205,303.171265 
	C446.435120,300.373657 449.185425,298.294922 449.816833,295.700562 
	C451.136932,290.276489 451.339417,284.580444 452.000916,278.996094 
z"/>
<path fill="#74924C" opacity="1.000000" stroke="none" 
	d="
M453.017548,230.978790 
	C453.708038,231.022415 454.398560,231.066025 455.434204,231.141327 
	C455.631561,236.812393 455.483795,242.451767 455.090454,248.416229 
	C452.305420,246.036819 449.765930,243.332291 447.533813,240.189301 
	C449.566650,236.826797 451.292084,233.902802 453.017548,230.978790 
z"/>
<path fill="#B2CC64" opacity="1.000000" stroke="none" 
	d="
M88.278122,233.401703 
	C88.876305,235.026718 89.910866,237.008255 90.193466,239.091766 
	C90.963539,244.769455 91.415955,250.490234 91.969460,256.660767 
	C90.963791,250.952347 89.974350,244.778427 89.007874,238.600922 
	C88.758659,237.007996 88.581650,235.403778 88.278122,233.401703 
z"/>
<path fill="#9EB75B" opacity="1.000000" stroke="none" 
	d="
M92.067825,258.396545 
	C92.601700,258.851288 93.063446,259.710785 93.735794,261.174622 
	C94.017097,262.805969 94.087814,263.833008 94.158539,264.860046 
	C94.158539,264.860046 94.000526,265.003662 93.921631,265.075562 
	C93.227051,263.032104 92.611382,260.916718 92.067825,258.396545 
z"/>
<path fill="#DFE98B" opacity="1.000000" stroke="none" 
	d="
M95.917130,190.065857 
	C95.509941,189.733109 95.110756,188.961823 94.472900,187.965271 
	C94.161057,186.738678 94.087898,185.737366 94.084229,184.364563 
	C94.744202,185.871155 95.334671,187.749237 95.917130,190.065857 
z"/>
<path fill="#DFE98B" opacity="1.000000" stroke="none" 
	d="
M92.027222,171.565308 
	C92.016823,172.766556 91.995499,173.547165 91.949783,174.716461 
	C91.698929,172.485794 91.472466,169.866425 91.574692,167.092865 
	C91.941017,168.340652 91.978661,169.742661 92.027222,171.565308 
z"/>
<path fill="#DFE98B" opacity="1.000000" stroke="none" 
	d="
M92.091164,176.407257 
	C92.765709,178.113007 93.369316,180.205902 93.948273,182.700562 
	C93.289146,180.999680 92.654686,178.897049 92.091164,176.407257 
z"/>
<path fill="#9EB75B" opacity="1.000000" stroke="none" 
	d="
M110.035538,308.361389 
	C110.364792,308.834869 110.615219,309.661133 110.870132,310.820068 
	C110.568657,310.339905 110.262680,309.527008 110.035538,308.361389 
z"/>
<path fill="#50572E" opacity="1.000000" stroke="none" 
	d="
M453.882690,267.711426 
	C453.680603,267.199829 453.600220,266.301422 453.669189,265.162781 
	C453.880463,265.723236 453.942444,266.523956 453.882690,267.711426 
z"/>
<path fill="#DFE98B" opacity="1.000000" stroke="none" 
	d="
M92.620308,165.028183 
	C92.728134,165.462540 92.544235,166.016144 92.134293,166.768250 
	C92.048370,166.360321 92.188477,165.753876 92.620308,165.028183 
z"/>
<path fill="#50572E" opacity="1.000000" stroke="none" 
	d="
M428.481049,324.069885 
	C428.593903,323.759430 429.004822,323.431976 429.694031,323.055237 
	C429.574615,323.354950 429.176849,323.703949 428.481049,324.069885 
z"/>
<path fill="#9EB75B" opacity="1.000000" stroke="none" 
	d="
M111.028076,312.332825 
	C111.347076,312.533356 111.591415,313.055908 111.867798,313.869568 
	C111.584373,313.658752 111.268890,313.156830 111.028076,312.332825 
z"/>
<path fill="#9EB75B" opacity="1.000000" stroke="none" 
	d="
M109.094910,306.279663 
	C109.372345,306.216644 109.575005,306.449066 109.823830,306.928040 
	C109.620842,306.945007 109.337555,306.745148 109.094910,306.279663 
z"/>
<path fill="#197043" opacity="1.000000" stroke="none" 
	d="
M415.288696,339.987732 
	C415.249573,339.806244 415.468414,339.543823 415.913269,339.155914 
	C415.941742,339.322540 415.744202,339.614685 415.288696,339.987732 
z"/>
<path fill="#C7D86F" opacity="1.000000" stroke="none" 
	d="
M166.735535,76.753586 
	C166.640640,76.946381 166.376968,77.014687 166.256958,76.950729 
	C166.042587,76.571724 166.138535,76.333107 166.632675,76.151016 
	C166.840561,76.131126 166.830444,76.560791 166.735535,76.753586 
z"/>
<path fill="#DFE98B" opacity="1.000000" stroke="none" 
	d="
M94.669296,160.984573 
	C94.839462,161.197372 94.695312,161.455933 94.321472,161.829529 
	C94.242943,161.675201 94.330681,161.370453 94.669296,160.984573 
z"/>
<path fill="#DFE98B" opacity="1.000000" stroke="none" 
	d="
M93.680176,162.977692 
	C93.847054,163.189850 93.700577,163.449310 93.323166,163.823090 
	C93.246269,163.668564 93.337799,163.364410 93.680176,162.977692 
z"/>
<path fill="#22683D" opacity="1.000000" stroke="none" 
	d="
M90.864700,221.152924 
	C91.045296,221.490997 90.839821,221.699829 90.310371,221.892487 
	C90.271599,221.711349 90.435669,221.427139 90.864700,221.152924 
z"/>
<path fill="#A6C055" opacity="1.000000" stroke="none" 
	d="
M331.946564,83.819115 
	C336.990448,83.178406 342.034363,82.537697 347.669128,82.248627 
	C353.209290,91.611374 358.038483,100.691269 363.147766,109.610748 
	C366.912292,116.182655 371.042725,122.544968 375.024841,129.235474 
	C375.039551,129.470291 375.067230,129.940033 374.798889,129.959030 
	C374.351715,129.986160 374.172882,129.994308 373.561951,130.001068 
	C357.708008,128.696457 342.286224,127.393196 326.864410,126.089943 
	C326.747345,126.599434 326.630310,127.108925 326.513245,127.618416 
	C339.425568,137.462601 352.320068,147.330322 365.263062,157.134003 
	C368.404877,159.513794 371.706421,161.682648 374.948059,164.294556 
	C374.964325,165.102325 374.967072,165.564041 374.612915,166.078293 
	C357.361908,172.725540 340.455109,179.288208 323.603790,185.990326 
	C322.531494,186.416794 321.889862,187.926056 320.667023,188.944702 
	C319.524109,188.971756 318.762054,188.985733 317.881104,188.746170 
	C317.509277,187.993073 317.256348,187.493500 317.364594,186.864075 
	C318.099060,186.217026 318.760651,185.722778 318.803925,185.179276 
	C320.237732,167.177032 321.641968,149.172226 322.937347,131.159637 
	C323.036743,129.777496 322.306793,128.335709 322.037415,126.558296 
	C325.390472,112.069664 328.668518,97.944389 331.946564,83.819115 
z"/>
<path fill="#B3CE64" opacity="1.000000" stroke="none" 
	d="
M331.592712,83.875977 
	C328.668518,97.944389 325.390472,112.069664 321.801971,126.796761 
	C318.514191,131.154037 315.550751,134.920547 312.556915,138.662766 
	C304.722931,148.455170 296.875671,158.236969 288.796631,167.771820 
	C285.152771,160.523193 281.669556,153.561676 278.355408,146.520599 
	C271.862610,132.726349 265.464081,118.887733 259.315308,105.174728 
	C260.885681,105.527275 262.209991,105.640129 263.442291,106.037971 
	C279.077576,111.085701 294.695984,116.185799 310.334320,121.223938 
	C311.261353,121.522598 312.321777,121.407257 313.320129,121.484566 
	C312.248138,119.311378 310.769440,118.096573 309.151184,117.110947 
	C298.099487,110.379738 286.993286,103.737457 275.981628,96.941841 
	C274.731476,96.170334 273.959442,94.624077 272.965729,93.437073 
	C283.377045,94.420311 293.778778,95.537148 304.206818,96.288231 
	C306.662720,96.465118 309.476288,95.935928 311.661133,94.821526 
	C318.308899,91.430817 324.729706,87.595222 331.592712,83.875977 
M316.503418,122.464760 
	C316.503418,122.464760 316.524841,122.514214 316.503418,122.464760 
z"/>
<path fill="#A6C055" opacity="1.000000" stroke="none" 
	d="
M259.026520,105.067482 
	C265.464081,118.887733 271.862610,132.726349 278.355408,146.520599 
	C281.669556,153.561676 285.152771,160.523193 288.915741,168.046448 
	C289.522949,169.326950 289.773987,170.081650 290.006531,171.133118 
	C289.977325,171.627808 289.966583,171.825745 289.724609,171.820831 
	C288.663055,171.079102 287.832703,170.540222 286.830780,169.700485 
	C282.326904,167.074631 278.073578,164.585007 273.644684,162.461502 
	C266.154297,158.870117 258.552948,155.510254 250.497147,151.823746 
	C251.033859,165.254745 251.527695,177.612656 251.599365,189.976913 
	C239.170761,187.748169 226.964828,186.363541 214.009705,182.271606 
	C221.449127,175.840012 227.787903,170.540009 233.910645,165.001205 
	C237.768692,161.511139 241.303360,157.663605 244.983093,153.976410 
	C246.187958,153.176315 247.392853,152.376221 249.008209,151.031296 
	C251.964737,135.996399 254.510818,121.506340 257.255493,106.804306 
	C257.623871,106.045441 257.793640,105.498543 257.963440,104.951653 
	C257.963440,104.951653 258.005920,104.983627 258.235077,104.987328 
	C258.633148,104.987968 258.802094,104.984901 258.985504,105.002861 
	C258.999969,105.023880 259.026520,105.067482 259.026520,105.067482 
z"/>
<path fill="#8EAE4C" opacity="1.000000" stroke="none" 
	d="
M242.181473,269.947754 
	C241.807510,269.227661 241.433563,268.507568 240.978058,267.450928 
	C240.896515,267.114410 241.010391,266.989655 241.424866,266.994476 
	C244.238205,266.672394 246.637054,266.345459 249.345734,266.265320 
	C251.448074,266.647552 253.262161,267.031128 255.029617,266.877686 
	C265.353516,265.981445 275.669861,264.992950 285.981659,263.964478 
	C290.567566,263.507172 295.136932,262.883728 300.230774,262.273804 
	C297.388031,259.043152 295.191986,256.547485 293.156189,253.751465 
	C297.807678,247.522568 302.236847,241.545181 306.833710,235.699707 
	C307.988617,234.231140 309.681610,233.185699 311.117249,232.345337 
	C310.021576,236.410873 309.157837,240.160431 307.814148,243.729279 
	C299.611877,265.514587 291.300629,287.258911 282.768250,308.807129 
	C280.812317,307.034729 279.045685,305.539368 277.426483,303.898529 
	C267.033020,293.366211 256.699005,282.775024 246.259109,272.289124 
	C245.192261,271.217590 243.554382,270.714569 242.181473,269.947754 
z"/>
<path fill="#8DAF4C" opacity="1.000000" stroke="none" 
	d="
M244.619263,154.003845 
	C241.303360,157.663605 237.768692,161.511139 233.910645,165.001205 
	C227.787903,170.540009 221.449127,175.840012 214.009705,182.271606 
	C226.964828,186.363541 239.170761,187.748169 251.848053,190.005692 
	C252.684753,190.047821 252.850616,190.067535 252.901611,190.308456 
	C252.539429,190.964661 252.292099,191.399658 251.834045,191.992966 
	C251.393188,192.411636 251.163071,192.671997 250.589447,193.002853 
	C241.959885,199.085129 233.649292,205.063431 225.394287,211.117523 
	C215.932617,218.056595 206.520279,225.062912 197.061554,232.028015 
	C197.036575,232.016006 196.986694,231.991867 197.009064,231.604141 
	C202.199020,215.396057 207.366608,199.575699 212.755249,183.078552 
	C209.100800,182.676697 206.013733,182.386688 202.940735,181.988129 
	C197.916550,181.336487 192.901535,180.614105 187.882660,179.921570 
	C206.673584,171.291473 225.464508,162.661377 244.619263,154.003845 
z"/>
<path fill="#829F41" opacity="1.000000" stroke="none" 
	d="
M242.114395,270.391052 
	C243.554382,270.714569 245.192261,271.217590 246.259109,272.289124 
	C256.699005,282.775024 267.033020,293.366211 277.426483,303.898529 
	C279.045685,305.539368 280.812317,307.034729 282.611877,309.105225 
	C270.823059,318.136932 258.933167,326.660828 247.043274,335.184723 
	C245.377960,313.734589 243.712631,292.284454 242.114395,270.391052 
z"/>
<path fill="#544C1C" opacity="1.000000" stroke="none" 
	d="
M247.106781,335.517883 
	C258.933167,326.660828 270.823059,318.136932 282.869324,309.315002 
	C291.300629,287.258911 299.611877,265.514587 307.814148,243.729279 
	C309.157837,240.160431 310.021576,236.410873 311.131165,232.204102 
	C311.155151,231.663330 311.069519,231.391724 311.302704,231.144928 
	C311.699310,230.256729 311.862732,229.615326 312.058472,228.802643 
	C312.090759,228.631348 312.037659,228.286804 312.277283,228.195496 
	C312.671661,228.031555 312.826385,227.958923 313.339569,227.860016 
	C331.426392,219.598022 349.105011,211.251480 366.935120,203.242203 
	C369.712677,201.994507 373.247559,201.663940 376.316986,201.990906 
	C383.211029,202.725296 390.032684,204.139175 397.137787,205.429916 
	C397.903992,205.891708 398.416199,206.200058 398.905212,206.818924 
	C398.996399,207.742310 399.110748,208.355164 399.225159,208.968002 
	C393.159088,208.139389 387.113342,207.026871 381.019196,206.591064 
	C377.492828,206.338882 373.494873,206.290710 370.384888,207.672073 
	C353.729675,215.069901 337.255066,222.879593 320.818787,230.757233 
	C319.103577,231.579315 317.442535,233.564774 316.789642,235.381744 
	C312.702759,246.755157 309.141144,258.319672 304.953430,269.653809 
	C300.820587,280.839508 295.356262,291.589600 291.955902,302.972870 
	C288.893646,313.224335 281.546082,318.598450 273.546448,324.014496 
	C267.361328,328.202057 261.399506,332.718811 255.322861,337.067535 
	C252.235153,339.277252 249.296783,340.212830 247.106781,335.517883 
z"/>
<path fill="#B3CD63" opacity="1.000000" stroke="none" 
	d="
M375.010132,129.000656 
	C371.042725,122.544968 366.912292,116.182655 363.147766,109.610748 
	C358.038483,100.691269 353.209290,91.611374 348.112732,82.275246 
	C352.090881,81.541344 356.216248,81.132469 360.695343,81.266449 
	C361.496613,82.668724 361.807587,83.641685 362.412903,84.369995 
	C368.429840,91.609436 374.432434,98.862656 380.572968,105.996750 
	C383.786743,109.730576 387.266815,113.235222 390.626648,116.843369 
	C391.083679,116.601593 391.540741,116.359810 391.997772,116.118034 
	C391.997772,113.346596 391.899719,110.570923 392.019348,107.804657 
	C392.231750,102.892326 392.576141,97.985710 392.865326,93.076691 
	C396.519958,100.793427 400.174561,108.510162 403.477936,116.600159 
	C399.768463,117.964256 396.410217,118.955093 392.676697,119.971390 
	C390.662506,120.690247 388.957947,121.261467 387.397491,122.100693 
	C383.235260,124.339111 379.135010,126.692780 375.010132,129.000656 
z"/>
<path fill="#C4D86F" opacity="1.000000" stroke="none" 
	d="
M257.056885,107.016273 
	C254.510818,121.506340 251.964737,135.996399 249.139618,150.748718 
	C237.920242,145.448914 226.979935,139.886841 215.113602,133.853989 
	C229.384109,124.215698 242.837616,115.129196 256.647400,106.240021 
	C257.021393,106.630325 257.039154,106.823303 257.056885,107.016273 
z"/>
<path fill="#8EAE4C" opacity="1.000000" stroke="none" 
	d="
M240.840500,267.177612 
	C226.036713,256.212708 211.288940,245.184586 196.347137,233.672501 
	C196.430984,232.789658 196.708832,232.390762 196.986694,231.991852 
	C196.986694,231.991867 197.036575,232.016006 197.372925,232.265991 
	C199.827972,232.649292 201.957031,232.987915 204.063599,232.881470 
	C215.051804,232.326126 226.034302,231.657639 237.012573,231.463516 
	C237.199570,233.710663 237.379974,235.524323 237.588196,237.334763 
	C238.725143,247.220169 239.868942,257.104767 241.010406,266.989655 
	C241.010391,266.989655 240.896515,267.114410 240.840500,267.177612 
z"/>
<path fill="#819F41" opacity="1.000000" stroke="none" 
	d="
M197.009064,231.604126 
	C196.708832,232.390762 196.430984,232.789658 196.101685,233.427551 
	C193.716019,221.723221 191.365570,209.782990 189.055771,197.834915 
	C188.178833,193.298660 187.299911,188.758301 186.630966,184.189209 
	C186.443787,182.910553 187.001221,181.522903 187.549881,180.053406 
	C192.901535,180.614105 197.916550,181.336487 202.940735,181.988129 
	C206.013733,182.386688 209.100800,182.676697 212.755249,183.078552 
	C207.366608,199.575699 202.199020,215.396057 197.009064,231.604126 
z"/>
<path fill="#C6D96E" opacity="1.000000" stroke="none" 
	d="
M375.024841,129.235474 
	C379.135010,126.692780 383.235260,124.339111 387.397491,122.100693 
	C388.957947,121.261467 390.662506,120.690247 392.994141,120.129883 
	C396.391724,121.487320 399.098602,122.707253 401.801025,123.937012 
	C407.790283,126.662453 413.777313,129.392822 419.765228,132.121201 
	C419.765228,132.121201 419.889954,132.092422 420.053406,132.319000 
	C420.426208,132.754578 420.674561,132.894379 420.961823,132.964981 
	C421.230316,133.400879 421.498810,133.836761 421.551666,134.804474 
	C419.564941,139.570984 417.793854,143.805634 415.667450,147.969284 
	C401.897156,141.912201 388.482178,135.926117 375.067230,129.940033 
	C375.067230,129.940033 375.039551,129.470291 375.024841,129.235474 
z"/>
<path fill="#C6D96E" opacity="1.000000" stroke="none" 
	d="
M272.594666,93.320969 
	C273.959442,94.624077 274.731476,96.170334 275.981628,96.941841 
	C286.993286,103.737457 298.099487,110.379738 309.151184,117.110947 
	C310.769440,118.096573 312.248138,119.311378 313.320129,121.484566 
	C312.321777,121.407257 311.261353,121.522598 310.334320,121.223938 
	C294.695984,116.185799 279.077576,111.085701 263.442291,106.037971 
	C262.209991,105.640129 260.885681,105.527275 259.315308,105.174728 
	C259.026520,105.067482 258.999969,105.023880 258.991516,104.734314 
	C258.969849,104.265846 258.956604,104.086952 258.943359,103.908058 
	C261.764709,100.887985 264.441254,97.709518 267.481812,94.929184 
	C268.628876,93.880295 270.618195,93.752525 272.594666,93.320969 
z"/>
<path fill="#A4BF57" opacity="1.000000" stroke="none" 
	d="
M392.778809,92.730408 
	C392.576141,97.985710 392.231750,102.892326 392.019348,107.804657 
	C391.899719,110.570923 391.997772,113.346596 391.997772,116.118034 
	C391.540741,116.359810 391.083679,116.601593 390.626648,116.843369 
	C387.266815,113.235222 383.786743,109.730576 380.572968,105.996750 
	C374.432434,98.862656 368.429840,91.609436 362.412903,84.369995 
	C361.807587,83.641685 361.496613,82.668724 361.027100,81.458176 
	C371.567535,84.866066 382.129913,88.625092 392.778809,92.730408 
z"/>
<path fill="#544C1C" opacity="1.000000" stroke="none" 
	d="
M416.022797,148.040298 
	C417.793854,143.805634 419.564941,139.570984 421.585022,135.075180 
	C425.635162,136.417511 426.590668,138.400894 424.354401,142.514053 
	C422.193756,146.488113 421.052582,151.136322 420.100189,155.623489 
	C417.842133,166.262024 415.962830,176.980911 413.926849,187.666626 
	C413.587006,189.450134 413.229156,191.230194 412.528809,193.604874 
	C409.948975,198.304489 410.824707,202.197281 412.990814,206.001221 
	C413.028961,207.379059 413.067108,208.756882 413.089539,210.912018 
	C413.674286,212.840698 414.274719,213.992065 414.875183,215.143433 
	C414.954254,218.115707 415.033325,221.087967 415.115173,224.845551 
	C415.699890,226.473114 416.281860,227.315353 416.863831,228.157593 
	C416.882782,228.871109 416.901764,229.584641 416.950317,230.902344 
	C416.979919,231.506546 417.033966,231.999893 417.033936,231.999893 
	C417.036072,232.755875 417.038208,233.511856 416.724335,234.602692 
	C415.314056,234.045929 414.219788,233.154312 413.097168,231.821884 
	C411.035309,219.253738 409.001770,207.126389 407.025879,194.606140 
	C407.225800,193.566391 407.356323,192.916702 407.512024,192.273132 
	C410.272552,180.862122 413.036194,169.451874 415.859741,157.589142 
	C415.954498,154.104645 415.988647,151.072464 416.022797,148.040298 
z"/>
<path fill="#849F40" opacity="1.000000" stroke="none" 
	d="
M451.652191,279.034485 
	C451.339417,284.580444 451.136932,290.276489 449.816833,295.700562 
	C449.185425,298.294922 446.435120,300.373657 444.352386,302.848877 
	C442.882446,301.032104 441.461456,299.152557 440.593323,297.045258 
	C439.674866,294.815826 439.282654,292.369598 438.294220,288.633240 
	C433.490173,296.161835 429.300415,302.727783 424.795959,309.788605 
	C423.683624,310.880188 422.886017,311.476929 422.069641,311.659149 
	C422.399353,309.309052 422.741730,307.372345 423.097382,305.438110 
	C424.371460,298.508423 425.650055,291.579559 426.926941,284.650391 
	C427.426483,283.859802 427.926025,283.069244 428.646759,282.109161 
	C429.842926,282.795044 430.786133,283.690247 431.798584,284.498749 
	C435.774719,287.673981 439.507812,289.089172 443.670349,284.359924 
	C445.655090,282.105011 448.725067,280.805298 451.652191,279.034485 
z"/>
<path fill="#8CAB4F" opacity="1.000000" stroke="none" 
	d="
M406.968201,194.999054 
	C409.001770,207.126389 411.035309,219.253738 412.812012,231.687149 
	C412.102112,231.566254 411.649048,231.139282 411.195984,230.712311 
	C407.360779,223.616898 403.525574,216.521484 399.457764,209.197037 
	C399.110748,208.355164 398.996399,207.742310 398.953857,206.420914 
	C401.673187,202.141266 404.320679,198.570145 406.968201,194.999054 
z"/>
<path fill="#8DAF4C" opacity="1.000000" stroke="none" 
	d="
M426.638031,284.847168 
	C425.650055,291.579559 424.371460,298.508423 423.097382,305.438110 
	C422.741730,307.372345 422.399353,309.309052 422.058563,311.655518 
	C422.066223,312.066376 422.061371,312.082428 421.707916,312.009094 
	C418.277710,310.288483 415.200958,308.641205 412.124207,306.993927 
	C413.232880,297.322876 419.027740,290.688812 426.638031,284.847168 
z"/>
<path fill="#9EB75B" opacity="1.000000" stroke="none" 
	d="
M413.836945,253.972168 
	C411.566132,249.687668 409.254883,245.423935 407.040100,241.110657 
	C405.764160,238.625824 404.644318,236.060852 403.212952,232.959808 
	C402.662323,231.903595 402.352936,231.419556 402.043549,230.935516 
	C402.043549,230.935516 402.016113,231.000992 402.012817,230.689285 
	C401.724640,229.883270 401.439789,229.388962 401.154938,228.894669 
	C401.052521,228.157806 400.950104,227.420944 401.220917,226.451263 
	C403.368073,227.828827 405.141998,229.439224 406.915894,231.049622 
	C406.915894,231.049622 406.947235,231.066895 406.962646,231.414352 
	C408.819122,233.857895 410.660187,235.953979 412.680542,238.312775 
	C413.227936,238.741364 413.596069,238.907242 413.869080,239.077408 
	C413.773956,239.081711 413.773468,239.272156 413.838623,239.540100 
	C414.283142,240.204254 414.662537,240.600464 415.041931,240.996658 
	C415.041931,240.996658 415.028870,240.978210 415.118591,241.206085 
	C415.477020,241.634125 415.745728,241.834274 416.014465,242.034424 
	C416.014465,242.034424 416.019196,241.986954 415.999390,242.397369 
	C415.265381,246.529251 414.551147,250.250717 413.836945,253.972168 
z"/>
<path fill="#A4BF57" opacity="1.000000" stroke="none" 
	d="
M419.639648,131.814911 
	C413.777313,129.392822 407.790283,126.662453 401.801025,123.937012 
	C399.098602,122.707253 396.391724,121.487320 393.369415,120.104431 
	C396.410217,118.955093 399.768463,117.964256 403.538635,116.948357 
	C409.138397,121.785072 414.326233,126.646858 419.639648,131.814911 
z"/>
<path fill="#8CAB4F" opacity="1.000000" stroke="none" 
	d="
M430.961121,218.650055 
	C431.152008,218.398819 431.390961,218.331345 431.498596,218.272095 
	C431.486176,219.560043 431.366058,220.907242 431.149719,223.019211 
	C430.652954,226.863098 430.252441,229.942200 429.618103,233.253784 
	C426.881592,233.659836 424.378876,233.833405 421.293701,234.047348 
	C421.198151,235.117401 421.058319,236.683456 420.918488,238.249496 
	C420.918488,238.249496 420.515656,238.056015 420.334106,237.566956 
	C419.816711,235.614319 419.480835,234.150742 419.144958,232.687164 
	C419.144958,232.687164 419.209229,232.509094 419.353455,232.241852 
	C419.632935,231.653595 419.768188,231.332581 419.903442,231.011566 
	C419.903442,231.011566 419.988403,230.986450 420.235046,230.788483 
	C420.795349,230.091797 421.109070,229.593048 421.422760,229.094315 
	C424.538574,225.696625 427.654419,222.298950 430.961121,218.650055 
z"/>
<path fill="#4D531E" opacity="1.000000" stroke="none" 
	d="
M422.077332,312.070007 
	C422.886017,311.476929 423.683624,310.880188 424.744965,310.139648 
	C427.071136,309.995880 429.133606,309.995880 432.063507,309.995880 
	C431.136444,312.262299 430.448303,313.944550 429.565979,315.897827 
	C427.135315,316.296021 424.725159,315.938782 422.703003,316.663727 
	C419.658234,317.755310 417.000946,319.938538 413.949829,320.997620 
	C412.272308,321.579895 410.125885,320.811432 408.414185,320.183289 
	C413.112091,317.170563 417.586731,314.626495 422.061371,312.082428 
	C422.061371,312.082428 422.066223,312.066376 422.077332,312.070007 
z"/>
<path fill="#4D531E" opacity="1.000000" stroke="none" 
	d="
M429.851929,233.021301 
	C430.252441,229.942200 430.652954,226.863098 431.134521,223.362442 
	C431.796265,224.952209 432.490051,226.939484 432.924255,228.981949 
	C433.319000,230.838959 433.431488,232.755936 433.705322,235.150116 
	C433.183990,235.728409 432.625763,235.803055 431.967010,235.639374 
	C431.723267,235.324112 431.572327,235.177170 431.439148,235.191818 
	C431.327911,235.204071 431.150970,235.405121 431.150421,235.523239 
	C431.134766,238.871902 431.137848,242.220673 431.137848,245.812119 
	C433.197968,245.812119 434.642090,245.812119 436.086212,245.812119 
	C434.319061,246.223557 432.551880,246.634979 430.198181,247.171844 
	C429.365753,247.482712 429.180237,247.716125 429.055084,247.997559 
	C426.866974,247.480591 424.678833,246.963608 422.245148,245.907257 
	C422.010559,244.936722 422.021545,244.505539 422.465393,244.045319 
	C424.882507,243.224976 427.934265,242.946152 428.614594,241.528931 
	C429.798218,239.063263 429.518280,235.895004 429.851929,233.021301 
z"/>
<path fill="#819F41" opacity="1.000000" stroke="none" 
	d="
M421.707916,312.009094 
	C417.586731,314.626495 413.112091,317.170563 408.308685,319.834106 
	C409.228241,315.842621 410.476562,311.731689 411.924530,307.307343 
	C415.200958,308.641205 418.277710,310.288483 421.707916,312.009094 
z"/>
<path fill="#829F41" opacity="1.000000" stroke="none" 
	d="
M429.618103,233.253784 
	C429.518280,235.895004 429.798218,239.063263 428.614594,241.528931 
	C427.934265,242.946152 424.882507,243.224976 422.223816,243.811493 
	C421.299591,242.754715 421.049805,241.902695 420.800049,241.050674 
	C420.815643,240.347382 420.831207,239.644089 420.882629,238.595154 
	C421.058319,236.683456 421.198151,235.117401 421.293701,234.047348 
	C424.378876,233.833405 426.881592,233.659836 429.618103,233.253784 
z"/>
<path fill="#8CAB4F" opacity="1.000000" stroke="none" 
	d="
M452.648499,230.840424 
	C451.292084,233.902802 449.566650,236.826797 447.529419,239.832291 
	C446.766724,236.911697 446.315765,233.909637 445.741821,230.088715 
	C448.321899,230.330750 450.300690,230.516388 452.648499,230.840424 
z"/>
<path fill="#2B6031" opacity="1.000000" stroke="none" 
	d="
M412.501282,238.050064 
	C410.660187,235.953979 408.819122,233.857895 406.951996,231.428711 
	C408.197418,231.126465 409.468933,231.157303 410.968201,230.950226 
	C411.649048,231.139282 412.102112,231.566254 412.840332,232.127960 
	C414.219788,233.154312 415.314056,234.045929 416.728088,234.980667 
	C416.516327,236.224442 415.984802,237.425095 414.922058,238.864868 
	C414.185059,239.160034 413.979248,239.216095 413.773468,239.272156 
	C413.773468,239.272156 413.773956,239.081711 413.672180,238.847519 
	C413.214050,238.425568 412.857666,238.237808 412.501282,238.050064 
z"/>
<path fill="#4D531E" opacity="1.000000" stroke="none" 
	d="
M414.149658,254.064911 
	C414.551147,250.250717 415.265381,246.529251 415.975677,242.399933 
	C416.406769,241.999573 416.841736,242.007080 417.619507,242.408844 
	C418.278259,244.199509 418.594208,245.595917 418.910156,246.992325 
	C418.354401,248.422073 417.798645,249.851822 417.158905,251.922791 
	C417.063568,252.981857 417.052185,253.399689 416.713806,253.881577 
	C415.957855,254.062317 415.528870,254.179001 415.099884,254.295654 
	C414.887390,254.249649 414.674866,254.203659 414.149658,254.064911 
z"/>
<path fill="#8CAB4F" opacity="1.000000" stroke="none" 
	d="
M436.101624,245.542206 
	C434.642090,245.812119 433.197968,245.812119 431.137848,245.812119 
	C431.137848,242.220673 431.134766,238.871902 431.150421,235.523239 
	C431.150970,235.405121 431.327911,235.204071 431.439148,235.191818 
	C431.572327,235.177170 431.723267,235.324112 431.994751,235.990128 
	C433.105408,238.056854 434.087799,239.534515 435.065247,241.359116 
	C435.416718,242.532608 435.773163,243.359161 436.129578,244.185715 
	C436.125427,244.547913 436.121246,244.910095 436.101624,245.542206 
z"/>
<path fill="#819F41" opacity="1.000000" stroke="none" 
	d="
M435.070221,241.012146 
	C434.087799,239.534515 433.105408,238.056854 432.095276,236.228455 
	C432.625763,235.803055 433.183990,235.728409 433.975281,235.490356 
	C435.897217,234.899109 437.586060,234.471298 439.587494,234.370117 
	C439.881622,235.099548 439.863159,235.502319 439.844727,235.905106 
	C439.844727,235.905106 439.998779,235.998123 439.629028,236.085785 
	C438.489502,237.441071 437.719696,238.708710 436.949890,239.976349 
	C436.949860,239.976334 436.998016,240.001312 436.723694,240.066681 
	C435.989624,240.425415 435.529907,240.718781 435.070221,241.012146 
z"/>
<path fill="#74924C" opacity="1.000000" stroke="none" 
	d="
M415.199677,254.631592 
	C415.528870,254.179001 415.957855,254.062317 417.149292,253.931946 
	C420.241638,253.893494 422.571564,253.868713 424.901489,253.843933 
	C426.551910,255.685989 426.115021,257.126526 423.698181,256.910583 
	C420.863373,256.657318 418.096069,255.648590 415.199677,254.631592 
z"/>
<path fill="#2B6031" opacity="1.000000" stroke="none" 
	d="
M413.193176,205.714920 
	C410.824707,202.197281 409.948975,198.304489 412.507355,194.009094 
	C413.022980,197.689743 413.209259,201.559174 413.193176,205.714920 
z"/>
<path fill="#2B6031" opacity="1.000000" stroke="none" 
	d="
M419.233337,246.952332 
	C418.594208,245.595917 418.278259,244.199509 417.945282,242.431351 
	C418.704590,241.813736 419.480957,241.567871 420.528687,241.186340 
	C421.049805,241.902695 421.299591,242.754715 421.790955,243.840546 
	C422.021545,244.505539 422.010559,244.936722 421.988037,245.691788 
	C421.169861,246.314575 420.363220,246.613464 419.233337,246.952332 
z"/>
<path fill="#2B6031" opacity="1.000000" stroke="none" 
	d="
M406.931641,230.683868 
	C405.141998,229.439224 403.368073,227.828827 401.292236,226.085632 
	C400.990326,225.952835 401.017517,225.989349 401.029358,225.761932 
	C401.041229,225.534531 400.994751,225.037079 400.994751,225.037079 
	C402.978973,226.797424 404.963196,228.557770 406.931641,230.683868 
z"/>
<path fill="#2B6031" opacity="1.000000" stroke="none" 
	d="
M424.609314,253.639313 
	C422.571564,253.868713 420.241638,253.893494 417.476257,253.867889 
	C417.052185,253.399689 417.063568,252.981857 417.123657,252.252472 
	C419.553955,252.438843 421.935547,252.936768 424.609314,253.639313 
z"/>
<path fill="#2B6031" opacity="1.000000" stroke="none" 
	d="
M414.908691,214.770844 
	C414.274719,213.992065 413.674286,212.840698 413.116638,211.324707 
	C413.753723,212.106140 414.347961,213.252197 414.908691,214.770844 
z"/>
<path fill="#4D531E" opacity="1.000000" stroke="none" 
	d="
M435.065247,241.359100 
	C435.529907,240.718781 435.989624,240.425415 436.708832,240.044006 
	C436.824829,241.159683 436.681305,242.363388 436.333679,243.876404 
	C435.773163,243.359161 435.416718,242.532608 435.065247,241.359100 
z"/>
<path fill="#4D531E" opacity="1.000000" stroke="none" 
	d="
M437.286224,239.920181 
	C437.719696,238.708710 438.489502,237.441071 439.554077,236.035858 
	C439.106781,237.220200 438.364655,238.542099 437.286224,239.920181 
z"/>
<path fill="#2B6031" opacity="1.000000" stroke="none" 
	d="
M416.892517,227.809845 
	C416.281860,227.315353 415.699890,226.473114 415.149200,225.291382 
	C415.760712,225.788635 416.340942,226.625366 416.892517,227.809845 
z"/>
<path fill="#2B6031" opacity="1.000000" stroke="none" 
	d="
M419.106079,233.075439 
	C419.480835,234.150742 419.816711,235.614319 420.139038,237.458038 
	C419.772705,236.380020 419.419952,234.921860 419.106079,233.075439 
z"/>
<path fill="#2B6031" opacity="1.000000" stroke="none" 
	d="
M400.960388,229.087341 
	C401.439789,229.388962 401.724640,229.883270 402.041473,230.668335 
	C401.637604,230.399399 401.201752,229.839706 400.960388,229.087341 
z"/>
<path fill="#B3CE64" opacity="1.000000" stroke="none" 
	d="
M257.255493,106.804306 
	C257.039154,106.823303 257.021393,106.630325 256.984985,106.147209 
	C257.029419,105.520348 257.213196,105.273483 257.740540,105.034065 
	C257.793640,105.498543 257.623871,106.045441 257.255493,106.804306 
z"/>
<path fill="#2B6031" opacity="1.000000" stroke="none" 
	d="
M421.140503,229.221466 
	C421.109070,229.593048 420.795349,230.091797 420.231171,230.744354 
	C420.273193,230.381668 420.565704,229.865158 421.140503,229.221466 
z"/>
<path fill="#4D531E" opacity="1.000000" stroke="none" 
	d="
M413.838623,239.540100 
	C413.979248,239.216095 414.185059,239.160034 414.706604,239.051178 
	C415.036957,239.442307 415.051514,239.886261 415.053986,240.663422 
	C414.662537,240.600464 414.283142,240.204254 413.838623,239.540100 
z"/>
<path fill="#4D531E" opacity="1.000000" stroke="none" 
	d="
M440.046021,235.780518 
	C439.863159,235.502319 439.881622,235.099548 439.962891,234.401855 
	C440.099579,234.623276 440.173462,235.139618 440.046021,235.780518 
z"/>
<path fill="#2B6031" opacity="1.000000" stroke="none" 
	d="
M402.072327,231.229462 
	C402.352936,231.419556 402.662323,231.903595 402.994232,232.683594 
	C402.711578,232.494171 402.406342,232.008774 402.072327,231.229462 
z"/>
<path fill="#197043" opacity="1.000000" stroke="none" 
	d="
M324.490356,83.486679 
	C324.513123,83.477516 324.467560,83.495834 324.490356,83.486679 
z"/>
<path fill="#B3CE64" opacity="1.000000" stroke="none" 
	d="
M258.709961,104.011040 
	C258.956604,104.086952 258.969849,104.265846 258.977051,104.713287 
	C258.802094,104.984901 258.633148,104.987968 258.210693,104.979858 
	C258.130249,104.683800 258.303375,104.398911 258.709961,104.011040 
z"/>
<path fill="#A4BF57" opacity="1.000000" stroke="none" 
	d="
M420.884277,132.739502 
	C420.674561,132.894379 420.426208,132.754578 420.086548,132.373764 
	C420.308319,132.119141 420.591827,132.223160 420.884277,132.739502 
z"/>
<path fill="#2B6031" opacity="1.000000" stroke="none" 
	d="
M429.242920,247.877045 
	C429.180237,247.716125 429.365753,247.482712 429.809052,247.189209 
	C429.858337,247.343582 429.666443,247.568726 429.242920,247.877045 
z"/>
<path fill="#9EB75B" opacity="1.000000" stroke="none" 
	d="
M400.795654,225.125824 
	C400.994751,225.037079 401.041229,225.534531 401.033966,225.784241 
	C400.809235,225.885696 400.583527,225.746872 400.386871,225.574768 
	C400.366943,225.557358 400.522491,225.339447 400.795654,225.125824 
z"/>
<path fill="#2B6031" opacity="1.000000" stroke="none" 
	d="
M417.147491,231.890594 
	C417.033966,231.999893 416.979919,231.506546 416.974670,231.258484 
	C417.299225,231.194504 417.396423,231.451462 417.147491,231.890594 
z"/>
<path fill="#2B6031" opacity="1.000000" stroke="none" 
	d="
M419.715942,231.195557 
	C419.768188,231.332581 419.632935,231.653595 419.306274,232.159790 
	C419.252747,232.023148 419.390564,231.701340 419.715942,231.195557 
z"/>
<path fill="#4D531E" opacity="1.000000" stroke="none" 
	d="
M415.905365,241.807037 
	C415.745728,241.834274 415.477020,241.634125 415.110229,241.198471 
	C415.273560,241.168533 415.534912,241.374100 415.905365,241.807037 
z"/>
<path fill="#564E1C" opacity="1.000000" stroke="none" 
	d="
M128.787674,160.975494 
	C129.819778,158.750763 130.577042,156.340714 131.930801,154.332870 
	C138.315567,144.863235 144.863739,135.503769 152.108856,126.026131 
	C161.092392,126.562202 169.320724,127.177155 177.890778,127.817650 
	C177.890778,125.498825 177.890778,123.725609 177.959381,121.636597 
	C177.992645,120.893204 177.957321,120.465622 178.051056,119.743179 
	C178.269135,119.030380 178.358154,118.612434 178.631058,117.920975 
	C179.548019,115.780052 180.281097,113.912636 181.280823,111.853790 
	C182.452179,110.172104 183.356873,108.681839 184.227203,107.163315 
	C184.192825,107.135056 184.182053,107.223389 184.465179,107.033676 
	C199.441650,97.857239 214.134995,88.870529 228.828339,79.883804 
	C230.114517,80.683533 231.400696,81.483261 232.686874,82.282990 
	C231.810898,83.385628 231.152405,84.840309 230.025360,85.536499 
	C218.624252,92.578987 207.256989,99.688858 195.652725,106.385574 
	C187.495712,111.092926 183.116577,118.039650 182.128204,127.109756 
	C181.696243,131.073761 180.489136,132.089310 176.452316,131.516846 
	C170.240372,130.635941 163.820114,129.889740 157.660507,130.593719 
	C154.985825,130.899399 152.331635,134.656555 150.378876,137.359543 
	C145.581192,144.000412 141.521042,151.188690 136.541306,157.678802 
	C132.606476,162.807083 132.662598,168.804688 131.426666,174.516434 
	C129.195374,184.827972 127.338058,195.220795 125.364189,205.587219 
	C125.149017,206.717316 125.193871,207.896927 125.097641,209.493271 
	C125.077148,209.932968 125.015266,209.990906 124.780174,209.765442 
	C123.398270,207.975494 122.251457,206.411041 121.104645,204.846573 
	C121.104645,204.846573 121.073715,204.919662 121.053650,204.558929 
	C120.967384,203.473373 120.901176,202.748550 120.991753,201.654480 
	C123.694916,187.848679 126.241295,174.412079 128.787674,160.975494 
z"/>
<path fill="#C7D86F" opacity="1.000000" stroke="none" 
	d="
M178.447159,118.194481 
	C178.358154,118.612434 178.269135,119.030380 177.888153,119.905090 
	C177.694397,120.892021 177.792587,121.422211 177.890778,121.952393 
	C177.890778,123.725609 177.890778,125.498825 177.890778,127.817650 
	C169.320724,127.177155 161.092392,126.562202 152.416290,125.867256 
	C154.494888,123.141113 157.061356,120.531662 159.530319,117.833023 
	C160.725952,116.526176 161.738678,115.051987 162.921906,113.330063 
	C163.670914,107.368721 164.390747,101.736961 164.976883,96.091331 
	C165.549042,90.580353 165.984573,85.055183 166.725220,79.247452 
	C167.804611,80.252632 168.638855,81.546608 169.770554,83.374832 
	C173.069031,91.937859 176.070068,99.966637 179.058868,108.329857 
	C179.038239,109.110176 179.029846,109.556053 178.629623,110.016624 
	C174.424591,111.104202 170.611404,112.177086 166.798233,113.249977 
	C166.792923,113.829994 166.787613,114.410004 166.782303,114.990021 
	C170.670593,116.058174 174.558868,117.126328 178.447159,118.194481 
z"/>
<path fill="#D5E683" opacity="1.000000" stroke="none" 
	d="
M179.071091,107.995422 
	C176.070068,99.966637 173.069031,91.937859 170.070984,83.533226 
	C173.168289,82.898460 176.262833,82.642303 179.356888,82.380005 
	C184.559769,81.938934 189.869370,80.915771 194.448608,85.384537 
	C194.642990,86.865860 194.557297,88.093636 194.565659,89.320770 
	C194.573349,90.447609 195.179657,91.944321 194.662918,92.637726 
	C192.061783,96.128166 189.098846,99.346863 186.437103,102.795364 
	C185.442535,104.083908 184.919891,105.736687 184.182068,107.223389 
	C184.182053,107.223389 184.192825,107.135056 183.842987,107.122925 
	C182.019119,107.405678 180.545105,107.700546 179.071091,107.995422 
z"/>
<path fill="#DFE98B" opacity="1.000000" stroke="none" 
	d="
M184.465179,107.033676 
	C184.919891,105.736687 185.442535,104.083908 186.437103,102.795364 
	C189.098846,99.346863 192.061783,96.128166 194.662918,92.637726 
	C195.179657,91.944321 194.573349,90.447609 194.565659,89.320770 
	C194.557297,88.093636 194.642990,86.865860 194.850174,85.375343 
	C201.204834,82.461174 207.193909,78.848549 213.657684,77.483109 
	C218.281586,76.506325 223.541840,78.541878 228.673248,79.558594 
	C214.134995,88.870529 199.441650,97.857239 184.465179,107.033676 
z"/>
<path fill="#53501E" opacity="1.000000" stroke="none" 
	d="
M145.223816,241.816620 
	C146.511581,243.591003 147.799332,245.365402 149.026672,247.578812 
	C148.966263,248.017822 148.797501,248.166168 148.541656,247.958939 
	C147.184479,245.838623 146.083160,243.925552 145.041595,241.962601 
	C145.101364,241.912735 145.223816,241.816620 145.223816,241.816620 
z"/>
<path fill="#53501E" opacity="1.000000" stroke="none" 
	d="
M141.102325,234.901611 
	C142.440506,236.966217 143.778687,239.030807 145.170334,241.456024 
	C145.223816,241.816620 145.101364,241.912735 144.786102,241.750885 
	C143.221893,239.467484 141.972946,237.345917 140.818954,235.144089 
	C140.913895,235.063828 141.102325,234.901611 141.102325,234.901611 
z"/>
<path fill="#53501E" opacity="1.000000" stroke="none" 
	d="
M149.049820,247.942749 
	C150.058136,249.015717 150.982895,250.163773 151.965500,251.644012 
	C152.023331,251.976196 151.738831,252.250595 151.371506,252.159546 
	C150.268616,250.767715 149.533051,249.466934 148.797501,248.166168 
	C148.797501,248.166168 148.966263,248.017822 149.049820,247.942749 
z"/>
<path fill="#53501E" opacity="1.000000" stroke="none" 
	d="
M137.071167,227.935028 
	C137.748962,229.015533 138.426758,230.096054 139.048218,231.593658 
	C138.991882,232.010742 138.848434,232.136368 138.599487,231.940842 
	C137.710312,230.657227 137.070068,229.569138 136.590302,228.344696 
	C136.750763,228.208359 137.071167,227.935028 137.071167,227.935028 
z"/>
<path fill="#53501E" opacity="1.000000" stroke="none" 
	d="
M130.057968,216.931900 
	C130.741043,218.011368 131.424118,219.090820 132.081024,220.561157 
	C132.054871,220.952042 131.968796,221.023529 131.719986,220.826996 
	C130.860916,219.524460 130.250656,218.418472 129.745514,217.218155 
	C129.850662,217.123825 130.057968,216.931900 130.057968,216.931900 
z"/>
<path fill="#53501E" opacity="1.000000" stroke="none" 
	d="
M135.141434,224.873688 
	C135.765381,225.674530 136.389343,226.475372 137.042236,227.605621 
	C137.071167,227.935028 136.750763,228.208359 136.392746,228.112869 
	C135.542023,227.136154 135.049301,226.254929 134.702881,225.248795 
	C134.849182,225.123886 135.141434,224.873688 135.141434,224.873688 
z"/>
<path fill="#53501E" opacity="1.000000" stroke="none" 
	d="
M133.051392,221.935806 
	C133.714172,222.698746 134.376953,223.461700 135.090576,224.549164 
	C135.141434,224.873688 134.849182,225.123886 134.493317,225.026962 
	C133.651154,224.045090 133.164856,223.160156 132.772720,222.191406 
	C132.866882,222.107605 133.051392,221.935806 133.051392,221.935806 
z"/>
<path fill="#564E1C" opacity="1.000000" stroke="none" 
	d="
M126.034805,210.940079 
	C126.705650,211.711365 127.376495,212.482666 127.980553,213.664459 
	C127.913757,214.074966 127.728104,214.225510 127.489502,214.033463 
	C126.769234,212.948837 126.287582,212.056259 125.864540,211.109207 
	C125.923149,211.054733 126.034805,210.940079 126.034805,210.940079 
z"/>
<path fill="#564E1C" opacity="1.000000" stroke="none" 
	d="
M128.007477,214.000809 
	C128.402863,214.401337 128.704544,214.876007 129.001251,215.671875 
	C128.996262,215.993057 128.887833,216.074753 128.661209,215.908478 
	C128.199097,215.236633 127.963600,214.731064 127.728104,214.225510 
	C127.728104,214.225510 127.913757,214.074966 128.007477,214.000809 
z"/>
<path fill="#53501E" opacity="1.000000" stroke="none" 
	d="
M140.049500,232.943359 
	C140.360733,233.410004 140.671967,233.876663 141.042770,234.622467 
	C141.102325,234.901611 140.913895,235.063828 140.600250,234.971100 
	C140.048157,234.376236 139.809723,233.874115 139.691437,233.265503 
	C139.811600,233.159012 140.049500,232.943359 140.049500,232.943359 
z"/>
<path fill="#53501E" opacity="1.000000" stroke="none" 
	d="
M129.051605,215.953735 
	C129.383759,216.072220 129.619019,216.277603 129.935333,216.731262 
	C130.057968,216.931900 129.850662,217.123825 129.544250,217.065842 
	C129.121155,216.696823 129.004501,216.385788 128.887833,216.074753 
	C128.887833,216.074753 128.996262,215.993057 129.051605,215.953735 
z"/>
<path fill="#564E1C" opacity="1.000000" stroke="none" 
	d="
M125.109840,209.905991 
	C125.419273,210.040085 125.646965,210.253479 125.930214,210.729645 
	C126.034805,210.940079 125.923149,211.054733 125.654144,210.976471 
	C125.154251,210.639633 125.030968,210.337189 125.015266,209.990906 
	C125.015266,209.990906 125.077148,209.932968 125.109840,209.905991 
z"/>
<path fill="#53501E" opacity="1.000000" stroke="none" 
	d="
M132.098282,220.916748 
	C132.420654,221.040771 132.651077,221.252823 132.942169,221.726700 
	C133.051392,221.935806 132.866882,222.107605 132.577103,222.034515 
	C132.181152,221.648788 132.074966,221.336166 131.968796,221.023529 
	C131.968796,221.023529 132.054871,220.952042 132.098282,220.916748 
z"/>
<path fill="#53501E" opacity="1.000000" stroke="none" 
	d="
M139.064514,231.948959 
	C139.403763,232.060715 139.629929,232.276627 139.932556,232.739136 
	C140.049500,232.943359 139.811600,233.159012 139.504608,233.104095 
	C138.992035,232.779022 138.875641,232.474747 138.848434,232.136368 
	C138.848434,232.136368 138.991882,232.010742 139.064514,231.948959 
z"/>
<path fill="#C7D86F" opacity="1.000000" stroke="none" 
	d="
M128.473328,161.073669 
	C126.241295,174.412079 123.694916,187.848679 120.664810,201.581100 
	C117.617706,198.972153 115.054337,196.067368 112.017853,192.626465 
	C110.602707,205.506668 109.253502,217.786591 107.904305,230.066513 
	C106.592583,226.981552 105.082016,223.963135 104.021675,220.794067 
	C102.814308,217.185562 102.008743,213.442627 100.882446,209.180939 
	C100.546333,208.377762 100.325790,208.187073 100.074715,208.031708 
	C99.920456,207.642334 99.766190,207.252975 99.594124,206.549500 
	C102.362663,202.847168 105.256439,199.539856 107.893494,196.039154 
	C109.381989,194.063187 110.448006,191.768967 111.847008,189.305481 
	C112.568726,187.530624 113.147766,186.068405 113.878723,184.302475 
	C117.184120,178.665924 120.291542,173.305054 123.512100,168.013031 
	C124.943420,165.661057 126.603004,163.447983 128.473328,161.073669 
z"/>
<path fill="#C7D86F" opacity="1.000000" stroke="none" 
	d="
M148.843552,125.553085 
	C148.796677,125.466705 149.178604,125.438858 149.178604,125.438858 
	C149.178604,125.438858 148.890427,125.639465 148.843552,125.553085 
z"/>
<path fill="#C6D96E" opacity="1.000000" stroke="none" 
	d="
M138.599487,231.940842 
	C138.875641,232.474747 138.992035,232.779022 139.384460,233.210587 
	C139.809723,233.874115 140.048157,234.376236 140.505310,235.051361 
	C141.972946,237.345917 143.221893,239.467484 144.726334,241.800751 
	C146.083160,243.925552 147.184479,245.838623 148.541656,247.958939 
	C149.533051,249.466934 150.268616,250.767715 151.229126,252.296600 
	C152.074539,253.800400 152.695007,255.076080 152.905548,256.745117 
	C144.078262,261.059296 135.666428,264.992096 127.240631,268.894775 
	C124.044075,270.375397 122.923798,271.798584 126.526367,274.399536 
	C133.243729,279.249298 139.746368,284.396454 146.338379,289.419861 
	C143.110992,299.836304 139.883621,310.252777 136.180878,320.662170 
	C134.033875,314.580261 132.261795,308.530853 130.713028,302.424835 
	C128.063095,291.977478 125.552994,281.494690 122.984177,271.026764 
	C122.337715,249.287964 121.691246,227.549179 121.074707,205.328476 
	C122.251457,206.411041 123.398270,207.975494 124.780174,209.765442 
	C125.030968,210.337189 125.154251,210.639633 125.595535,211.030945 
	C126.287582,212.056259 126.769234,212.948837 127.489502,214.033463 
	C127.963600,214.731064 128.199097,215.236633 128.661209,215.908478 
	C129.004501,216.385788 129.121155,216.696823 129.439102,217.160172 
	C130.250656,218.418472 130.860916,219.524460 131.719986,220.826996 
	C132.074966,221.336166 132.181152,221.648788 132.482941,222.118317 
	C133.164856,223.160156 133.651154,224.045090 134.347015,225.151871 
	C135.049301,226.254929 135.542023,227.136154 136.232285,228.249207 
	C137.070068,229.569138 137.710312,230.657227 138.599487,231.940842 
z"/>
<path fill="#A6C055" opacity="1.000000" stroke="none" 
	d="
M122.748611,271.315521 
	C125.552994,281.494690 128.063095,291.977478 130.713028,302.424835 
	C132.261795,308.530853 134.033875,314.580261 135.960022,320.962524 
	C136.159424,321.661316 136.104294,322.052673 135.966003,322.730713 
	C131.057892,323.009888 126.232788,323.020508 121.407944,322.990082 
	C115.858757,322.955078 114.305107,321.217041 115.116875,315.688995 
	C116.416748,306.836945 117.758614,297.989655 119.220833,289.163269 
	C120.193871,283.289673 121.407249,277.455872 122.748611,271.315521 
z"/>
<path fill="#C6D96E" opacity="1.000000" stroke="none" 
	d="
M101.417999,272.064362 
	C100.920464,271.347015 100.892883,270.600250 100.915237,269.055878 
	C102.638809,258.836334 104.312439,249.414459 105.986076,239.992569 
	C106.311760,238.895691 106.637436,237.798813 106.985451,236.356430 
	C111.465927,246.391937 115.926941,256.771667 120.380157,267.154785 
	C121.498024,269.761200 120.429329,270.871033 117.785675,271.022186 
	C112.484467,271.325317 107.186974,271.693604 101.417999,272.064362 
z"/>
<path fill="#D5E683" opacity="1.000000" stroke="none" 
	d="
M108.158737,230.121979 
	C109.253502,217.786591 110.602707,205.506668 112.017853,192.626465 
	C115.054337,196.067368 117.617706,198.972153 120.508026,201.950317 
	C120.901176,202.748550 120.967384,203.473373 121.093239,204.556122 
	C120.020576,206.405487 118.589165,207.755981 117.808144,209.413025 
	C114.569557,216.284103 111.527435,223.247772 108.158737,230.121979 
z"/>
<path fill="#D5E683" opacity="1.000000" stroke="none" 
	d="
M100.007950,208.264542 
	C100.325790,208.187073 100.546333,208.377762 100.861633,208.782990 
	C100.803490,208.960648 100.620041,208.959030 100.161591,208.968079 
	C99.886589,208.978714 99.941185,208.497375 100.007950,208.264542 
z"/>
<path fill="#B3CD63" opacity="1.000000" stroke="none" 
	d="
M146.553497,289.087158 
	C139.746368,284.396454 133.243729,279.249298 126.526367,274.399536 
	C122.923798,271.798584 124.044075,270.375397 127.240631,268.894775 
	C135.666428,264.992096 144.078262,261.059296 152.871521,257.103088 
	C151.087799,267.629944 148.928207,278.192200 146.553497,289.087158 
z"/>
<path fill="#A5BA56" opacity="1.000000" stroke="none" 
	d="
M154.986816,364.011749 
	C155.103226,364.121674 155.228653,364.223511 155.354095,364.325348 
	C155.268738,364.295593 155.183395,364.265839 155.053818,364.111237 
	C155.009598,363.986389 154.995850,364.003693 154.986816,364.011749 
z"/>
<path fill="#B4CE63" opacity="1.000000" stroke="none" 
	d="
M105.696487,240.171982 
	C104.312439,249.414459 102.638809,258.836334 100.924545,268.683472 
	C98.838646,267.793152 96.793373,266.477570 94.453308,265.011017 
	C94.087814,263.833008 94.017097,262.805969 93.935104,261.391785 
	C96.595467,255.907181 99.222061,250.785309 101.962265,245.724976 
	C102.972626,243.859131 104.250862,242.138336 105.696487,240.171982 
z"/>
<path fill="#8EAF4C" opacity="1.000000" stroke="none" 
	d="
M415.667450,147.969284 
	C415.988647,151.072464 415.954498,154.104645 415.504791,157.663330 
	C413.234314,158.800934 411.421051,159.648346 409.517517,159.984009 
	C398.674286,161.896042 387.809479,163.686050 376.004639,165.677353 
	C379.837860,172.588257 383.522736,178.977341 386.958557,185.497696 
	C390.396606,192.022324 393.585602,198.678146 396.883789,205.276459 
	C390.032684,204.139175 383.211029,202.725296 376.316986,201.990906 
	C373.247559,201.663940 369.712677,201.994507 366.935120,203.242203 
	C349.105011,211.251480 331.426392,219.598022 313.344086,227.426727 
	C313.192352,224.900131 313.321411,222.770569 313.609100,220.662643 
	C315.049866,210.105316 316.532257,199.553650 318.000000,189.000000 
	C318.000000,189.000000 318.000000,188.999695 318.000000,188.999695 
	C318.762054,188.985733 319.524109,188.971756 321.070435,188.971786 
	C336.400574,192.426849 350.949860,195.853531 365.489349,199.321365 
	C368.326416,199.998032 371.409729,201.134216 371.899292,196.675034 
	C373.019745,186.469238 373.957764,176.243439 374.969849,166.025757 
	C374.967072,165.564041 374.964325,165.102325 374.966919,163.831909 
	C374.646240,152.016296 374.320160,141.009369 373.994080,130.002441 
	C374.172882,129.994308 374.351715,129.986160 374.798889,129.959030 
	C388.482178,135.926117 401.897156,141.912201 415.667450,147.969284 
z"/>
<path fill="#8EB04B" opacity="1.000000" stroke="none" 
	d="
M290.025024,170.836349 
	C289.773987,170.081650 289.522949,169.326950 289.152802,168.297607 
	C296.875671,158.236969 304.722931,148.455170 312.556915,138.662766 
	C315.550751,134.920547 318.514191,131.154037 321.726929,127.160110 
	C322.306793,128.335709 323.036743,129.777496 322.937347,131.159637 
	C321.641968,149.172226 320.237732,167.177032 318.803925,185.179276 
	C318.760651,185.722778 318.099060,186.217026 317.073120,186.689255 
	C307.622009,181.374969 298.823517,176.105667 290.025024,170.836349 
z"/>
<path fill="#B4CE63" opacity="1.000000" stroke="none" 
	d="
M374.612915,166.078293 
	C373.957764,176.243439 373.019745,186.469238 371.899292,196.675034 
	C371.409729,201.134216 368.326416,199.998032 365.489349,199.321365 
	C350.949860,195.853531 336.400574,192.426849 321.451294,188.958679 
	C321.889862,187.926056 322.531494,186.416794 323.603790,185.990326 
	C340.455109,179.288208 357.361908,172.725540 374.612915,166.078293 
z"/>
<path fill="#B4CE63" opacity="1.000000" stroke="none" 
	d="
M373.561951,130.001068 
	C374.320160,141.009369 374.646240,152.016296 374.953430,163.485870 
	C371.706421,161.682648 368.404877,159.513794 365.263062,157.134003 
	C352.320068,147.330322 339.425568,137.462601 326.513245,127.618416 
	C326.630310,127.108925 326.747345,126.599434 326.864410,126.089943 
	C342.286224,127.393196 357.708008,128.696457 373.561951,130.001068 
z"/>
<path fill="#B4CE63" opacity="1.000000" stroke="none" 
	d="
M290.006531,171.133118 
	C298.823517,176.105667 307.622009,181.374969 316.711975,186.819092 
	C317.256348,187.493500 317.509277,187.993073 317.881104,188.746170 
	C318.000000,188.999695 318.000000,189.000000 317.711121,189.167786 
	C314.329376,192.001205 311.342773,194.804398 308.116333,197.297241 
	C304.201050,200.322342 300.083313,203.085449 296.036652,205.549866 
	C293.998688,194.099777 291.977234,183.061722 289.955811,172.023682 
	C289.966583,171.825745 289.977325,171.627808 290.006531,171.133118 
z"/>
<path fill="#C6D96E" opacity="1.000000" stroke="none" 
	d="
M316.514130,122.489487 
	C316.524841,122.514214 316.503418,122.464760 316.514130,122.489487 
z"/>
<path fill="#8DAF4C" opacity="1.000000" stroke="none" 
	d="
M289.724609,171.820831 
	C291.977234,183.061722 293.998688,194.099777 296.019257,205.809082 
	C296.012695,206.653168 296.006958,206.825989 295.672852,206.840820 
	C283.437927,202.242233 271.494873,197.895004 259.663574,193.262299 
	C257.848907,192.551758 256.549591,190.524979 255.217178,188.834641 
	C265.949066,182.375320 276.475708,176.188324 287.002380,170.001343 
	C287.832703,170.540222 288.663055,171.079102 289.724609,171.820831 
z"/>
<path fill="#B4CE63" opacity="1.000000" stroke="none" 
	d="
M286.830780,169.700470 
	C276.475708,176.188324 265.949066,182.375320 254.931213,188.869324 
	C253.965515,189.479965 253.490982,189.783615 253.016464,190.087250 
	C252.850616,190.067535 252.684753,190.047821 252.270218,189.999344 
	C251.527695,177.612656 251.033859,165.254745 250.497147,151.823746 
	C258.552948,155.510254 266.154297,158.870117 273.644684,162.461502 
	C278.073578,164.585007 282.326904,167.074631 286.830780,169.700470 
z"/>
<path fill="#849F40" opacity="1.000000" stroke="none" 
	d="
M252.901611,190.308456 
	C253.490982,189.783615 253.965515,189.479965 254.725983,189.141632 
	C256.549591,190.524979 257.848907,192.551758 259.663574,193.262299 
	C271.494873,197.895004 283.437927,202.242233 295.672241,206.841400 
	C296.000000,207.000000 296.002441,206.998978 295.822968,207.288681 
	C290.944397,210.350464 286.245300,213.122559 281.546204,215.894638 
	C281.537109,216.506577 281.528015,217.118530 281.518921,217.730484 
	C291.660034,220.836395 301.801117,223.942291 311.969452,227.357605 
	C312.010345,227.873596 312.024017,228.080200 312.037659,228.286804 
	C312.037659,228.286804 312.090759,228.631348 311.829193,229.046036 
	C311.401581,230.104385 311.235565,230.748062 311.069519,231.391724 
	C311.069519,231.391724 311.155151,231.663330 311.141235,231.804565 
	C309.681610,233.185699 307.988617,234.231140 306.833710,235.699707 
	C302.236847,241.545181 297.807678,247.522568 292.774109,253.767395 
	C277.833160,258.061981 263.434540,262.040253 249.035919,266.018555 
	C246.637054,266.345459 244.238205,266.672394 241.424866,266.994476 
	C239.868942,257.104767 238.725143,247.220169 237.588196,237.334763 
	C237.379974,235.524323 237.199570,233.710663 237.273987,231.420502 
	C237.715378,230.910233 237.889114,230.877945 238.382721,230.873962 
	C239.130905,230.913132 239.559235,230.923965 240.167816,231.239471 
	C240.709961,231.880447 241.014572,232.350662 241.442108,232.533661 
	C254.985458,238.330261 268.530853,244.122406 282.102814,249.851517 
	C284.719086,250.955948 287.446564,251.796906 290.838501,253.016800 
	C286.667572,240.384888 282.787384,228.633560 278.743164,216.604095 
	C269.734344,208.162186 260.889557,199.998428 252.044769,191.834656 
	C252.292099,191.399658 252.539429,190.964661 252.901611,190.308456 
z"/>
<path fill="#A4BF57" opacity="1.000000" stroke="none" 
	d="
M249.345734,266.265320 
	C263.434540,262.040253 277.833160,258.061981 292.613892,254.067749 
	C295.191986,256.547485 297.388031,259.043152 300.230774,262.273804 
	C295.136932,262.883728 290.567566,263.507172 285.981659,263.964478 
	C275.669861,264.992950 265.353516,265.981445 255.029617,266.877686 
	C253.262161,267.031128 251.448074,266.647552 249.345734,266.265320 
z"/>
<path fill="#A6C055" opacity="1.000000" stroke="none" 
	d="
M238.062866,230.845642 
	C237.889114,230.877945 237.715378,230.910233 237.280212,230.985535 
	C226.034302,231.657639 215.051804,232.326126 204.063599,232.881470 
	C201.957031,232.987915 199.827972,232.649292 197.397903,232.278015 
	C206.520279,225.062912 215.932617,218.056595 225.394287,211.117523 
	C233.649292,205.063431 241.959885,199.085129 250.552246,193.382050 
	C248.853043,199.250214 246.778351,204.785950 244.859665,210.375244 
	C242.525391,217.175140 240.322556,224.020142 238.062866,230.845642 
z"/>
<path fill="#B3CD63" opacity="1.000000" stroke="none" 
	d="
M238.382721,230.873962 
	C240.322556,224.020142 242.525391,217.175140 244.859665,210.375244 
	C246.778351,204.785950 248.853043,199.250214 250.895752,193.311554 
	C251.163071,192.671997 251.393188,192.411636 251.834045,191.992966 
	C260.889557,199.998428 269.734344,208.162186 278.370361,216.660095 
	C270.608948,219.555649 263.017029,222.008072 255.517197,224.715637 
	C250.275406,226.608002 245.159622,228.849319 239.987564,230.934799 
	C239.559235,230.923965 239.130905,230.913132 238.382721,230.873962 
z"/>
<path fill="#A6BF56" opacity="1.000000" stroke="none" 
	d="
M397.137787,205.429916 
	C393.585602,198.678146 390.396606,192.022324 386.958557,185.497696 
	C383.522736,178.977341 379.837860,172.588257 376.004639,165.677353 
	C387.809479,163.686050 398.674286,161.896042 409.517517,159.984009 
	C411.421051,159.648346 413.234314,158.800934 415.444214,158.115662 
	C413.036194,169.451874 410.272552,180.862122 407.512024,192.273132 
	C407.356323,192.916702 407.225800,193.566391 407.025848,194.606140 
	C404.320679,198.570145 401.673187,202.141266 398.977051,206.110382 
	C398.416199,206.200058 397.903992,205.891708 397.137787,205.429916 
z"/>
<path fill="#A6C055" opacity="1.000000" stroke="none" 
	d="
M312.277283,228.195496 
	C312.024017,228.080200 312.010345,227.873596 311.824402,227.055359 
	C306.435577,219.962143 301.218994,213.480560 296.002441,206.998978 
	C296.002441,206.998978 296.000000,207.000000 296.000610,206.999420 
	C296.006958,206.825989 296.012695,206.653168 296.035797,206.221130 
	C300.083313,203.085449 304.201050,200.322342 308.116333,197.297241 
	C311.342773,194.804398 314.329376,192.001205 317.711121,189.167786 
	C316.532257,199.553650 315.049866,210.105316 313.609100,220.662643 
	C313.321411,222.770569 313.192352,224.900131 312.985626,227.453003 
	C312.826385,227.958923 312.671661,228.031555 312.277283,228.195496 
z"/>
<path fill="#8EAF4C" opacity="1.000000" stroke="none" 
	d="
M311.302704,231.144928 
	C311.235565,230.748062 311.401581,230.104385 311.796906,229.217316 
	C311.862732,229.615326 311.699310,230.256729 311.302704,231.144928 
z"/>
<path fill="#4D531E" opacity="1.000000" stroke="none" 
	d="
M412.680542,238.312775 
	C412.857666,238.237808 413.214050,238.425568 413.767334,238.843216 
	C413.596069,238.907242 413.227936,238.741364 412.680542,238.312775 
z"/>
<path fill="#D5E683" opacity="1.000000" stroke="none" 
	d="
M178.631058,117.920975 
	C174.558868,117.126328 170.670593,116.058174 166.782303,114.990021 
	C166.787613,114.410004 166.792923,113.829994 166.798233,113.249977 
	C170.611404,112.177086 174.424591,111.104202 178.932541,110.091057 
	C180.089584,110.782272 180.551880,111.413742 181.014175,112.045212 
	C180.281097,113.912636 179.548019,115.780052 178.631058,117.920975 
z"/>
<path fill="#DFE98B" opacity="1.000000" stroke="none" 
	d="
M181.280823,111.853790 
	C180.551880,111.413742 180.089584,110.782272 179.324387,110.076370 
	C179.029846,109.556053 179.038239,109.110176 179.058868,108.329849 
	C180.545105,107.700546 182.019119,107.405678 183.877350,107.151184 
	C183.356873,108.681839 182.452179,110.172104 181.280823,111.853790 
z"/>
<path fill="#D5E683" opacity="1.000000" stroke="none" 
	d="
M177.959381,121.636597 
	C177.792587,121.422211 177.694397,120.892021 177.759094,120.199936 
	C177.957321,120.465622 177.992645,120.893204 177.959381,121.636597 
z"/>
<path fill="#8DAF4C" opacity="1.000000" stroke="none" 
	d="
M240.167816,231.239441 
	C245.159622,228.849319 250.275406,226.608002 255.517197,224.715637 
	C263.017029,222.008072 270.608948,219.555649 278.534393,216.938248 
	C282.787384,228.633560 286.667572,240.384888 290.838501,253.016800 
	C287.446564,251.796906 284.719086,250.955948 282.102814,249.851517 
	C268.530853,244.122406 254.985458,238.330261 241.442108,232.533661 
	C241.014572,232.350662 240.709961,231.880447 240.167816,231.239441 
z"/>
<path fill="#8EAF4C" opacity="1.000000" stroke="none" 
	d="
M295.822968,207.288681 
	C301.218994,213.480560 306.435577,219.962143 311.797180,226.745972 
	C301.801117,223.942291 291.660034,220.836395 281.518921,217.730484 
	C281.528015,217.118530 281.537109,216.506577 281.546204,215.894638 
	C286.245300,213.122559 290.944397,210.350464 295.822968,207.288681 
z"/>
</svg>